STARTFONT 2.1
FONT -Monotype-Nimrod-Bold-R-Normal--36-360-75-75-P-230-iso8859-5
SIZE 36 75 75
FONTBOUNDINGBOX 47 46 -2 -8

STARTPROPERTIES 24
FOUNDRY "Monotype"
FAMILY_NAME "Nimrod"
WEIGHT_NAME "Bold"
SLANT "R"
SETWIDTH_NAME "Normal"
ADD_STYLE_NAME ""
PIXEL_SIZE 36
POINT_SIZE 360
RESOLUTION_X 75
RESOLUTION_Y 75
SPACING "P"
AVERAGE_WIDTH 230
CHARSET_REGISTRY "iso8859"
CHARSET_ENCODING "5"
FACE_NAME "Nimrod Bold ISO Latin Cyrillic"
_DEC_DEVICE_FONTNAMES "PS=nimrod-b-latcyrillic"
COPYRIGHT "Copyright (c) 1993 Monotype Typography Ltd."
CAP_HEIGHT 33
X_HEIGHT 24
WEIGHT 10
QUAD_WIDTH 28
DEFAULT_CHAR 160
FONT_DESCENT 8
FONT_ASCENT 38
ENDPROPERTIES

CHARS 191

STARTCHAR space
ENCODING 32
SWIDTH 250 0
DWIDTH 10 0
BBX 0 0 0 0
BITMAP
ENDCHAR

STARTCHAR exclam
ENCODING 33
SWIDTH 323 0
DWIDTH 12 0
BBX 7 29 3 0
BITMAP
38
7C
FE
FE
FE
FE
FC
FC
7C
7C
7C
78
78
38
38
30
30
30
30
30
30
00
00
78
FC
FC
FC
FC
78
ENDCHAR

STARTCHAR quotedbl
ENCODING 34
SWIDTH 552 0
DWIDTH 21 0
BBX 14 13 4 13
BITMAP
7030
F878
F8FC
F8FC
F87C
F878
F078
7078
7038
7030
7030
2030
2010
ENDCHAR

STARTCHAR numbersign
ENCODING 35
SWIDTH 667 0
DWIDTH 25 0
BBX 22 26 2 -1
BITMAP
01C070
018060
038060
0380E0
0380E0
0380E0
0300C0
FFFFFC
FFFFFC
FFFFFC
0601C0
060180
0E0380
0E0380
0E0380
0C0300
FFFFFC
FFFFFC
FFFFFC
1C0700
180700
180600
380E00
380E00
380E00
300C00
ENDCHAR

STARTCHAR dollar
ENCODING 36
SWIDTH 542 0
DWIDTH 21 0
BBX 19 34 1 -5
BITMAP
00C000
00C000
03F800
0FFE00
1ECF80
3CC380
38C3C0
78C7C0
78C7C0
7CC7C0
7EC780
7FC000
3FC000
3FF000
1FFC00
0FFE00
03FF80
01FF80
00FFC0
00DFE0
78C7E0
7CC3E0
FCC1E0
F8C1E0
F8C1E0
70C3C0
78C780
3EDF00
0FFE00
01E000
00C000
00C000
00C000
00C000
ENDCHAR

STARTCHAR percent
ENCODING 37
SWIDTH 1000 0
DWIDTH 38 0
BBX 30 28 4 -1
BITMAP
1FC00700
3DE00600
78F00C00
78F01C00
F8F81800
F8F83800
F8F83000
F8F86000
F8F86000
F8F8C000
78F0C000
78F18000
3DE18000
0F830FE0
00071EF0
00063C78
000C3C78
000C7C7C
00187C7C
00187C7C
00307C7C
00307C7C
00607C7C
00E03C78
00C03C78
01C01EF0
018007E0
03000000
ENDCHAR

STARTCHAR ampersand
ENCODING 38
SWIDTH 865 0
DWIDTH 33 0
BBX 30 29 2 0
BITMAP
001F8000
007FE000
00F0F000
01E07800
01E07800
03E07800
03E07800
03E0F800
03F0F000
01F1E000
01FBC000
01FF0000
00FC0000
03FC0FFC
0F7E0FFC
1E7F01E0
3C3F01C0
7C3F8180
7C1FC380
FC0FC300
FC0FE600
FC07F600
FE03F80C
FE01FC0C
7F00FE1C
7F81FFF8
3FFFBFF8
0FFE1FF0
03F007C0
ENDCHAR

STARTCHAR quoteright
ENCODING 39
SWIDTH 323 0
DWIDTH 12 0
BBX 7 12 3 17
BITMAP
78
FC
FE
FE
FE
7E
0E
0C
1C
38
F0
40
ENDCHAR

STARTCHAR parenleft
ENCODING 40
SWIDTH 385 0
DWIDTH 15 0
BBX 12 36 2 -7
BITMAP
0020
0070
00E0
01C0
0380
0780
0F00
1F00
1E00
3E00
3E00
7E00
7C00
7C00
FC00
FC00
FC00
FC00
FC00
FC00
FC00
FC00
7C00
7E00
7E00
3E00
3E00
1F00
0F00
0F80
0780
03C0
01C0
00E0
0070
0010
ENDCHAR

STARTCHAR parenright
ENCODING 41
SWIDTH 385 0
DWIDTH 15 0
BBX 12 36 1 -7
BITMAP
4000
E000
7800
3C00
1E00
1E00
0F00
0F80
0780
07C0
07C0
07E0
03E0
03F0
03F0
03F0
03F0
03F0
03F0
03F0
03F0
03F0
03E0
03E0
07E0
07C0
07C0
0F80
0F00
1F00
1E00
3C00
3800
7000
C000
4000
ENDCHAR

STARTCHAR asterisk
ENCODING 42
SWIDTH 552 0
DWIDTH 21 0
BBX 19 18 1 11
BITMAP
00E000
01F000
01F000
01F000
01F000
78E3C0
FCE7E0
FE4FE0
FF5FE0
7FFFC0
00E000
03B000
0FBC00
1FBE00
1F1F00
1F1F00
0F1E00
040000
ENDCHAR

STARTCHAR plus
ENCODING 43
SWIDTH 667 0
DWIDTH 25 0
BBX 21 21 2 2
BITMAP
007000
007000
007000
007000
007000
007000
007000
007000
007000
FFFFF8
FFFFF8
FFFFF8
007000
007000
007000
007000
007000
007000
007000
007000
007000
ENDCHAR

STARTCHAR comma
ENCODING 44
SWIDTH 323 0
DWIDTH 12 0
BBX 7 12 3 -6
BITMAP
78
FC
FE
FE
FE
7E
0E
0C
1C
38
F0
40
ENDCHAR

STARTCHAR minus
ENCODING 45
SWIDTH 667 0
DWIDTH 25 0
BBX 20 3 3 11
BITMAP
FFFFF0
FFFFF0
FFFFF0
ENDCHAR

STARTCHAR period
ENCODING 46
SWIDTH 323 0
DWIDTH 12 0
BBX 6 6 3 0
BITMAP
78
FC
FC
FC
FC
78
ENDCHAR

STARTCHAR slash
ENCODING 47
SWIDTH 552 0
DWIDTH 21 0
BBX 19 32 1 -1
BITMAP
0000E0
0001C0
0001C0
000380
000380
000700
000700
000E00
000E00
001C00
001C00
003800
003800
007000
007000
00E000
00E000
01C000
01C000
038000
038000
070000
070000
0E0000
0E0000
1C0000
1C0000
380000
380000
700000
700000
E00000
ENDCHAR

STARTCHAR zero
ENCODING 48
SWIDTH 594 0
DWIDTH 23 0
BBX 19 27 2 0
BITMAP
01F000
07FC00
1F1F00
1E0F00
3E0F80
3E07C0
7C07C0
7C07C0
7C07E0
FC07E0
FC07E0
FC07E0
FC07E0
FC07E0
FC07E0
FC07E0
FC07E0
FC07E0
7C07E0
7C07C0
7C07C0
3E07C0
3E0F80
1E0F00
0F1E00
07FC00
01F000
ENDCHAR

STARTCHAR one
ENCODING 49
SWIDTH 594 0
DWIDTH 23 0
BBX 16 27 3 0
BITMAP
0060
03E0
FFE0
FFE0
0FE0
07E0
07E0
07E0
07E0
07E0
07E0
07E0
07E0
07E0
07E0
07E0
07E0
07E0
07E0
07E0
07E0
07E0
07E0
07E0
07E0
FFFF
FFFF
ENDCHAR

STARTCHAR two
ENCODING 50
SWIDTH 594 0
DWIDTH 23 0
BBX 19 27 2 0
BITMAP
03F800
0FFE00
1C3F00
381F80
780FC0
7C0FC0
7C0FC0
7E0FC0
7E0FC0
3E0FC0
1C1F80
001F80
003F00
003E00
007C00
00F800
01E000
03C000
078060
0700E0
0E00C0
1801C0
3FFFC0
7FFFC0
FFFFC0
FFFFC0
FFFFC0
ENDCHAR

STARTCHAR three
ENCODING 51
SWIDTH 594 0
DWIDTH 23 0
BBX 20 27 1 0
BITMAP
03F800
0FFF00
3C1F80
380FC0
7807E0
7C07E0
7C07E0
7C07E0
3807C0
0007C0
000F80
001F00
07F000
03FE00
000FC0
0007E0
0003E0
3003F0
7803F0
FC03F0
FC03F0
F803F0
7807E0
7807E0
3C1FC0
1FFF00
07FC00
ENDCHAR

STARTCHAR four
ENCODING 52
SWIDTH 594 0
DWIDTH 23 0
BBX 20 27 1 0
BITMAP
000700
000F00
001F00
001F00
003F00
007F00
00EF00
00DF00
019F00
031F00
071F00
0E1F00
0C1F00
181F00
381F00
701F00
601F00
C01F00
FFFFF0
FFFFF0
001F00
001F00
001F00
001F00
001F00
03FFF0
03FFF0
ENDCHAR

STARTCHAR five
ENCODING 53
SWIDTH 594 0
DWIDTH 23 0
BBX 20 27 1 0
BITMAP
0FFFE0
1FFFE0
1FFFC0
1FFFC0
1FFFC0
180000
180000
180000
180000
31FE00
37FF80
3E3FC0
380FE0
0007E0
0007F0
0003F0
0003F0
7803F0
FC03F0
FC03F0
FC03F0
F807E0
7807E0
780FC0
3C1F80
1FFF00
03F800
ENDCHAR

STARTCHAR six
ENCODING 54
SWIDTH 594 0
DWIDTH 23 0
BBX 20 27 1 0
BITMAP
00FE00
03FFC0
0F83E0
1F03E0
1E03E0
3E03E0
3E03E0
7C0000
7C0000
7C0000
FC7E00
FCFF80
FFFFC0
FF0FE0
FE07E0
FE03F0
FC03F0
FC03F0
7C03F0
7C03F0
7C03F0
7C03E0
3E07E0
1E07C0
1F0F80
07FF00
01FC00
ENDCHAR

STARTCHAR seven
ENCODING 55
SWIDTH 594 0
DWIDTH 23 0
BBX 19 27 2 0
BITMAP
7FFFE0
7FFFE0
7FFFC0
7FFFC0
7FFF80
700180
E00300
C00700
C00600
000E00
000C00
001C00
003C00
003800
007800
007800
00F000
00F000
01F000
01F000
03F000
03F000
03E000
03E000
03E000
03E000
01C000
ENDCHAR

STARTCHAR eight
ENCODING 56
SWIDTH 594 0
DWIDTH 23 0
BBX 19 27 2 0
BITMAP
07F800
1FFF00
3F0F80
7E0FC0
7C07C0
FC07E0
FC07E0
FC07E0
7C07E0
7C07C0
3E0F80
1F1F00
03F800
0FFE00
3F1F80
7E0FC0
7C07E0
FC07E0
FC07E0
FC07E0
FC07E0
FC07E0
7C07C0
7E0FC0
3F1F80
1FFF00
03F800
ENDCHAR

STARTCHAR nine
ENCODING 57
SWIDTH 594 0
DWIDTH 23 0
BBX 20 27 1 0
BITMAP
03F800
0FFE00
1F0F80
3E07C0
7E07C0
7C03E0
FC03E0
FC03E0
FC03F0
FC03F0
FC03F0
FE07F0
7E07F0
7F0FF0
3FFBF0
1FF3F0
07E3F0
0003E0
0003E0
0003E0
7C07E0
7C07C0
7C0780
7C0F80
3C3F00
1FFC00
07F000
ENDCHAR

STARTCHAR colon
ENCODING 58
SWIDTH 323 0
DWIDTH 12 0
BBX 6 21 3 0
BITMAP
78
FC
FC
FC
FC
78
00
00
00
00
00
00
00
00
00
78
FC
FC
FC
FC
78
ENDCHAR

STARTCHAR semicolon
ENCODING 59
SWIDTH 323 0
DWIDTH 12 0
BBX 7 27 3 -6
BITMAP
78
FC
FC
FC
FC
78
00
00
00
00
00
00
00
00
00
7C
FC
FE
FE
FE
7E
0E
0C
1C
38
F0
40
ENDCHAR

STARTCHAR less
ENCODING 60
SWIDTH 667 0
DWIDTH 25 0
BBX 20 19 3 3
BITMAP
000030
0000F0
0007F0
001FC0
00FF00
03FC00
0FE000
7F8000
FC0000
E00000
FC0000
7F0000
1FE000
03F800
00FE00
003FC0
0007F0
0001F0
000030
ENDCHAR

STARTCHAR equal
ENCODING 61
SWIDTH 667 0
DWIDTH 25 0
BBX 20 12 3 6
BITMAP
FFFFF0
FFFFF0
FFFFF0
000000
000000
000000
000000
000000
000000
FFFFF0
FFFFF0
FFFFF0
ENDCHAR

STARTCHAR greater
ENCODING 62
SWIDTH 667 0
DWIDTH 25 0
BBX 20 19 3 3
BITMAP
800000
F00000
FC0000
7F0000
1FE000
03F800
00FF00
001FC0
0007F0
0000F0
0003F0
001FC0
007F00
03FC00
0FE000
7F8000
FE0000
F00000
C00000
ENDCHAR

STARTCHAR question
ENCODING 63
SWIDTH 500 0
DWIDTH 19 0
BBX 16 29 2 0
BITMAP
0FE0
1FF8
78FC
787E
F83F
F83F
FC3F
F83F
783F
107E
007E
007C
00F8
01F0
01C0
0180
0380
0300
0300
0300
0300
0000
0000
0780
0FC0
0FC0
0FC0
0FC0
0780
ENDCHAR

STARTCHAR at
ENCODING 64
SWIDTH 927 0
DWIDTH 35 0
BBX 33 34 2 -8
BITMAP
0007FC0000
003C078000
00E000C000
0180002000
0700001000
0E00000800
0C00000C00
1800000400
3803CF0400
30076F0200
700E2F0200
601C3E0200
603C3E0200
E07C3E0200
C0783E0200
C0F83C0200
C0F87C0200
C0F07C0400
C0F0F80400
C1F0780C00
C1F1780800
C1F3781000
41FEF03000
61FCF04180
60F8F98100
30707E0200
3000000200
1800000400
0800000800
0400001000
0300006000
01C001C000
00700F0000
000FF00000
ENDCHAR

STARTCHAR A
ENCODING 65
SWIDTH 854 0
DWIDTH 32 0
BBX 31 29 1 0
BITMAP
00038000
00038000
0007C000
0007C000
000FE000
000FE000
001FE000
001FF000
001BF000
003BF800
0031F800
0071FC00
0061FC00
00E0FC00
00C0FE00
00C07E00
01C07F00
01807F00
03803F00
03FFFF80
07FFFF80
06001FC0
06001FC0
0E000FC0
0C000FE0
1E0007E0
3E000FF0
FFC07FFE
FFC07FFE
ENDCHAR

STARTCHAR B
ENCODING 66
SWIDTH 792 0
DWIDTH 30 0
BBX 27 29 1 0
BITMAP
FFFFF000
FFFFFC00
0FC0FF00
0FC03F00
0FC03F80
0FC01F80
0FC01F80
0FC01F80
0FC01F80
0FC01F80
0FC03F00
0FC07E00
0FC0FC00
0FFFC000
0FFFF800
0FC0FF00
0FC03F80
0FC01FC0
0FC00FC0
0FC00FE0
0FC00FE0
0FC00FE0
0FC00FE0
0FC00FE0
0FC01FC0
0FC01FC0
1FE07F80
FFFFFE00
FFFFF800
ENDCHAR

STARTCHAR C
ENCODING 67
SWIDTH 750 0
DWIDTH 29 0
BBX 25 29 2 0
BITMAP
003FF000
01FFFE00
07F03F00
0FE01F00
1FC00F00
3F800700
3F800700
7F000700
7F000300
7F000300
FE000000
FE000000
FE000000
FE000000
FE000000
FE000000
FE000000
FE000000
FF000000
FF000180
7F000380
7F000300
3F800700
3F800F00
1FC01E00
0FF03C00
07FFF800
01FFE000
003F8000
ENDCHAR

STARTCHAR D
ENCODING 68
SWIDTH 823 0
DWIDTH 31 0
BBX 28 29 1 0
BITMAP
FFFFE000
FFFFFC00
0FE0FE00
0FC03F00
0FC01F80
0FC01FC0
0FC00FC0
0FC00FE0
0FC007E0
0FC007F0
0FC007F0
0FC007F0
0FC007F0
0FC007F0
0FC007F0
0FC007F0
0FC007F0
0FC007F0
0FC007F0
0FC007F0
0FC00FE0
0FC00FE0
0FC00FC0
0FC01FC0
0FC01F80
0FC03F00
1FE0FE00
FFFFF800
FFFFE000
ENDCHAR

STARTCHAR E
ENCODING 69
SWIDTH 750 0
DWIDTH 29 0
BBX 25 29 1 0
BITMAP
FFFFFF00
FFFFFF00
0FE03F00
0FC00F00
0FC00700
0FC00700
0FC00300
0FC00300
0FC0C300
0FC0C300
0FC1C000
0FC1C000
0FC7C000
0FFFC000
0FFFC000
0FC3C000
0FC1C000
0FC0C000
0FC0C180
0FC0C180
0FC0C180
0FC00180
0FC00380
0FC00380
0FC00780
0FC00F80
1FE03F80
FFFFFF80
FFFFFF80
ENDCHAR

STARTCHAR F
ENCODING 70
SWIDTH 698 0
DWIDTH 27 0
BBX 24 29 1 0
BITMAP
FFFFFF
FFFFFF
0FE03F
0FC00F
0FC007
0FC007
0FC003
0FC003
0FC0C3
0FC0C3
0FC1C0
0FC1C0
0FC7C0
0FFFC0
0FFFC0
0FC3C0
0FC1C0
0FC0C0
0FC0C0
0FC0C0
0FC0C0
0FC000
0FC000
0FC000
0FC000
0FC000
1FE000
FFFE00
FFFE00
ENDCHAR

STARTCHAR G
ENCODING 71
SWIDTH 854 0
DWIDTH 32 0
BBX 30 29 2 0
BITMAP
003FF800
00FFFF00
03F83F80
07E00F80
0FC00780
1F800380
3F800380
3F000180
7F0001C0
7F0001C0
FE000000
FE000000
FE000000
FE000000
FE000000
FE00FFFC
FE00FFFC
FE001FE0
FE000FC0
7F000FC0
7F000FC0
7F000FC0
3F800FC0
1F800FC0
1FC00FC0
0FE00FC0
03F83F80
01FFFE00
003FF000
ENDCHAR

STARTCHAR H
ENCODING 72
SWIDTH 865 0
DWIDTH 33 0
BBX 31 29 1 0
BITMAP
FFFC7FFE
FFFC7FFE
1FE00FF0
0FC007E0
0FC007E0
0FC007E0
0FC007E0
0FC007E0
0FC007E0
0FC007E0
0FC007E0
0FC007E0
0FC007E0
0FFFFFE0
0FFFFFE0
0FC007E0
0FC007E0
0FC007E0
0FC007E0
0FC007E0
0FC007E0
0FC007E0
0FC007E0
0FC007E0
0FC007E0
0FC007E0
1FE00FF0
FFFC7FFE
FFFC7FFE
ENDCHAR

STARTCHAR I
ENCODING 73
SWIDTH 448 0
DWIDTH 17 0
BBX 14 29 2 0
BITMAP
FFFC
FFFC
0FE0
0FC0
0FC0
0FC0
0FC0
0FC0
0FC0
0FC0
0FC0
0FC0
0FC0
0FC0
0FC0
0FC0
0FC0
0FC0
0FC0
0FC0
0FC0
0FC0
0FC0
0FC0
0FC0
0FC0
1FE0
FFFC
FFFC
ENDCHAR

STARTCHAR J
ENCODING 74
SWIDTH 635 0
DWIDTH 24 0
BBX 23 29 1 0
BITMAP
00FFFE
00FFFE
000FF0
0007E0
0007E0
0007E0
0007E0
0007E0
0007E0
0007E0
0007E0
0007E0
0007E0
0007E0
0007E0
0007E0
0007E0
1807E0
7C07E0
7E07E0
FE07E0
FE07E0
FE07E0
FC0FE0
780FE0
780FC0
3C1F80
1FFF00
07FC00
ENDCHAR

STARTCHAR K
ENCODING 75
SWIDTH 854 0
DWIDTH 32 0
BBX 31 29 1 0
BITMAP
FFFC7FF8
FFFC7FF8
0FE01FC0
0FC00F00
0FC00E00
0FC01C00
0FC03800
0FC07000
0FC06000
0FC0C000
0FC1C000
0FC3E000
0FC7E000
0FCFF000
0FDFF000
0FFBF800
0FF3FC00
0FE1FC00
0FC0FE00
0FC0FE00
0FC07F00
0FC07F00
0FC03F80
0FC01FC0
0FC01FC0
0FC00FE0
1FE01FF0
FFFCFFFE
FFFCFFFE
ENDCHAR

STARTCHAR L
ENCODING 76
SWIDTH 708 0
DWIDTH 27 0
BBX 25 29 1 0
BITMAP
FFFF0000
FFFF0000
0FE00000
0FC00000
0FC00000
0FC00000
0FC00000
0FC00000
0FC00000
0FC00000
0FC00000
0FC00000
0FC00000
0FC00000
0FC00000
0FC00000
0FC00000
0FC00000
0FC00180
0FC00380
0FC00380
0FC00380
0FC00380
0FC00700
0FC00F00
0FC00F00
1FE03F00
FFFFFF00
FFFFFF00
ENDCHAR

STARTCHAR M
ENCODING 77
SWIDTH 1052 0
DWIDTH 40 0
BBX 38 29 1 0
BITMAP
FFF8003FFC
FDF80077FC
1DF80077C0
0DFC006FC0
0DFC00EFC0
0CFC00CFC0
0CFE00CFC0
0CFE01CFC0
0C7E018FC0
0C7F018FC0
0C3F038FC0
0C3F830FC0
0C3F830FC0
0C1F870FC0
0C1FC60FC0
0C1FCE0FC0
0C0FCE0FC0
0C0FEC0FC0
0C07EC0FC0
0C07FC0FC0
0C07F80FC0
0C03F80FC0
0C03F00FC0
0C03F00FC0
0C01F00FC0
1E01E00FC0
3F00E01FE0
FFE0E0FFFC
FFE0C0FFFC
ENDCHAR

STARTCHAR N
ENCODING 78
SWIDTH 833 0
DWIDTH 32 0
BBX 29 29 2 0
BITMAP
FF803FF8
FFC03FF8
1FE007E0
0FF003C0
0FF00180
0FF80180
0DFC0180
0DFC0180
0CFE0180
0CFF0180
0C7F8180
0C3F8180
0C1FC180
0C1FE180
0C0FE180
0C07F180
0C07F980
0C03FD80
0C01FD80
0C00FF80
0C00FF80
0C007F80
0C003F80
0C001F80
0C001F80
1E000F80
3F000780
FFE00780
FFE00380
ENDCHAR

STARTCHAR O
ENCODING 79
SWIDTH 823 0
DWIDTH 31 0
BBX 27 29 2 0
BITMAP
007FC000
01FFF000
07E0FC00
0FC07E00
1F803F00
3F001F80
3F001F80
7F001FC0
7F000FC0
7E000FC0
FE000FE0
FE000FE0
FE000FE0
FE000FE0
FE000FE0
FE000FE0
FE000FE0
FE000FE0
FE000FE0
7E000FC0
7F001FC0
7F001FC0
3F001F80
3F001F80
1F803F00
0FC07E00
07E0FC00
01FFF000
007FC000
ENDCHAR

STARTCHAR P
ENCODING 80
SWIDTH 729 0
DWIDTH 28 0
BBX 26 29 1 0
BITMAP
FFFFF000
FFFFFC00
0FE0FF00
0FC03F80
0FC03F80
0FC01FC0
0FC01FC0
0FC01FC0
0FC01FC0
0FC01FC0
0FC01FC0
0FC03F80
0FC07F00
0FC0FF00
0FFFFC00
0FFFF000
0FC00000
0FC00000
0FC00000
0FC00000
0FC00000
0FC00000
0FC00000
0FC00000
0FC00000
0FC00000
1FE00000
FFFF0000
FFFF0000
ENDCHAR

STARTCHAR Q
ENCODING 81
SWIDTH 823 0
DWIDTH 31 0
BBX 30 33 2 -4
BITMAP
007FC000
01FFF000
07E0FC00
0FC07E00
1F803F00
3F001F80
3F001F80
7F001FC0
7F000FC0
7E000FC0
FE000FE0
FE000FE0
FE000FE0
FE000FE0
FE000FE0
FE000FE0
FE3C0FE0
FE7F0FE0
FEFF8FE0
7F87CFC0
7F03DFC0
7F03DFC0
3F01EF80
3F01FF80
1F80FF00
0FC0FE00
07E0FC00
01FFF800
007FFC00
00003E00
00001F80
00000FFC
000001FC
ENDCHAR

STARTCHAR R
ENCODING 82
SWIDTH 802 0
DWIDTH 30 0
BBX 28 29 1 0
BITMAP
FFFFF000
FFFFFC00
1FE1FE00
0FC07F00
0FC03F00
0FC03F80
0FC03F80
0FC03F80
0FC03F80
0FC03F80
0FC03F00
0FC03F00
0FC07E00
0FC1FC00
0FFFD000
0FFFE000
0FC3F000
0FC1F800
0FC0FC00
0FC0FC00
0FC0FE00
0FC07E00
0FC07F00
0FC03F00
0FC03F00
0FC03F80
0FC01FC0
FFFC1FF0
FFFC0FF0
ENDCHAR

STARTCHAR S
ENCODING 83
SWIDTH 646 0
DWIDTH 25 0
BBX 21 29 2 0
BITMAP
03FE00
0FFFC0
3F07E0
3E01E0
7C00F0
7C00F0
FC0070
FC0070
FE0070
FF8070
7FE000
7FF800
3FFE00
1FFF80
0FFFC0
01FFE0
007FF0
001FF0
C00FF8
C003F8
C001F8
E001F8
E001F8
F001F0
F001F0
F803E0
FE0FC0
7FFF80
0FFC00
ENDCHAR

STARTCHAR T
ENCODING 84
SWIDTH 729 0
DWIDTH 28 0
BBX 26 29 1 0
BITMAP
7FFFFF80
7FFFFFC0
FC7F8FC0
F83F07C0
F03F03C0
F03F03C0
E03F01C0
E03F01C0
E03F01C0
C03F00C0
C03F00C0
003F0000
003F0000
003F0000
003F0000
003F0000
003F0000
003F0000
003F0000
003F0000
003F0000
003F0000
003F0000
003F0000
003F0000
003F0000
007F8000
03FFF000
03FFF000
ENDCHAR

STARTCHAR U
ENCODING 85
SWIDTH 802 0
DWIDTH 30 0
BBX 29 29 1 0
BITMAP
FFFE3FF8
FFFE3FF8
0FE007E0
0FC003C0
0FC00180
0FC00180
0FC00180
0FC00180
0FC00180
0FC00180
0FC00180
0FC00180
0FC00180
0FC00180
0FC00180
0FC00180
0FC00180
0FC00180
0FC00180
0FC00180
0FC00180
0FC00180
0FC00380
0FE00380
07E00700
07F00F00
03FC3E00
01FFFC00
007FE000
ENDCHAR

STARTCHAR V
ENCODING 86
SWIDTH 823 0
DWIDTH 31 0
BBX 30 29 1 0
BITMAP
FFFC1FFC
FFFC1FFC
3FC003F0
1FC001C0
0FC001C0
0FE00180
07E00380
07F00380
07F00300
03F00700
03F80600
01F80E00
01FC0E00
01FC0C00
00FC1C00
00FE1800
007E3800
007F3800
003F3000
003FB000
003FE000
001FE000
001FC000
000FC000
000FC000
000F8000
00078000
00070000
00030000
ENDCHAR

STARTCHAR W
ENCODING 87
SWIDTH 1104 0
DWIDTH 42 0
BBX 40 29 1 0
BITMAP
FFF3FFF1FF
FFF3FFF1FF
3F807F003C
1F803F003C
1F803F0038
1FC03F8038
0FC01F8030
0FC03F8070
0FE03FC070
07E077C060
07E06FE0E0
07F067E0C0
03F0E7E0C0
03F0C7F1C0
03F8C3F180
01F9C3F180
01F983FB80
01FF81FB00
00FD81FF00
00FF01FF00
00FF00FE00
007F00FE00
007E00FE00
003E007C00
003C007C00
003C007800
001C003800
0018003800
0018003000
ENDCHAR

STARTCHAR X
ENCODING 88
SWIDTH 802 0
DWIDTH 30 0
BBX 29 29 1 0
BITMAP
FFFC7FF0
FFFC7FF0
3FE00FC0
1FE00F00
1FE00F00
0FF00E00
07F01C00
03F83800
03FC7000
01FEF000
00FEE000
007FC000
007F8000
003FC000
001FC000
001FE000
001FF000
003FF000
0077F800
00E3FC00
01C1FE00
01C0FE00
0380FF00
07007F80
0F003F80
1F003FC0
3F803FE0
FFE1FFF8
FFE1FFF8
ENDCHAR

STARTCHAR Y
ENCODING 89
SWIDTH 792 0
DWIDTH 30 0
BBX 29 29 1 0
BITMAP
FFFC1FF8
FFFC1FF8
3FE007E0
1FE003C0
0FE00380
0FF00300
07F00700
03F80E00
03FC0E00
01FC1C00
00FE1800
00FF3800
007F3000
003FF000
003FE000
001FC000
000FC000
000FC000
000FC000
000FC000
000FC000
000FC000
000FC000
000FC000
000FC000
000FC000
001FE000
00FFFC00
00FFFC00
ENDCHAR

STARTCHAR Z
ENCODING 90
SWIDTH 667 0
DWIDTH 25 0
BBX 23 29 1 0
BITMAP
3FFFFE
3FFEFE
3F01FE
7C01FC
7803F8
7807F8
7007F0
700FE0
700FE0
601FC0
003FC0
003F80
007F00
00FF00
00FE00
01FC00
01FC00
03F800
07F806
07F006
0FE00E
1FE00E
1FC00E
3F801E
3F801E
7F003C
FE00FC
FFFFFC
FFFFFC
ENDCHAR

STARTCHAR bracketleft
ENCODING 91
SWIDTH 396 0
DWIDTH 15 0
BBX 11 34 3 -5
BITMAP
FFE0
FFE0
FC00
FC00
FC00
FC00
FC00
FC00
FC00
FC00
FC00
FC00
FC00
FC00
FC00
FC00
FC00
FC00
FC00
FC00
FC00
FC00
FC00
FC00
FC00
FC00
FC00
FC00
FC00
FC00
FC00
FC00
FFE0
FFE0
ENDCHAR

STARTCHAR backslash
ENCODING 92
SWIDTH 552 0
DWIDTH 21 0
BBX 19 32 1 -1
BITMAP
E00000
700000
700000
380000
380000
1C0000
1C0000
0E0000
0E0000
070000
070000
038000
038000
01C000
01C000
00E000
00E000
007000
007000
003800
003800
001C00
001C00
000E00
000E00
000700
000700
000380
000380
0001C0
0001C0
0000E0
ENDCHAR

STARTCHAR bracketright
ENCODING 93
SWIDTH 396 0
DWIDTH 15 0
BBX 11 34 1 -5
BITMAP
FFE0
FFE0
07E0
07E0
07E0
07E0
07E0
07E0
07E0
07E0
07E0
07E0
07E0
07E0
07E0
07E0
07E0
07E0
07E0
07E0
07E0
07E0
07E0
07E0
07E0
07E0
07E0
07E0
07E0
07E0
07E0
07E0
FFE0
FFE0
ENDCHAR

STARTCHAR asciicircum
ENCODING 94
SWIDTH 583 0
DWIDTH 22 0
BBX 16 14 3 12
BITMAP
0180
01C0
03C0
03E0
0760
0E70
0E70
1C38
1C1C
381C
300E
700E
E007
E007
ENDCHAR

STARTCHAR underscore
ENCODING 95
SWIDTH 500 0
DWIDTH 19 0
BBX 19 2 0 -8
BITMAP
FFFFE0
FFFFE0
ENDCHAR

STARTCHAR quoteleft
ENCODING 96
SWIDTH 323 0
DWIDTH 12 0
BBX 7 12 3 17
BITMAP
06
1E
38
70
60
E0
FC
FE
FE
FE
7E
3C
ENDCHAR

STARTCHAR a
ENCODING 97
SWIDTH 615 0
DWIDTH 23 0
BBX 22 21 1 0
BITMAP
03FE00
0FFF80
3E0FC0
3E07C0
3E07E0
7E07E0
3C07E0
1807E0
0007E0
01FFE0
1FFBE0
3F87E0
7E07E0
FC07E0
FC07E0
FC07E0
FC07E0
FE1FE0
7FFFF4
3FF3FC
0FC1FC
ENDCHAR

STARTCHAR b
ENCODING 98
SWIDTH 646 0
DWIDTH 25 0
BBX 23 29 0 0
BITMAP
FF8000
FF8000
3F8000
1F8000
1F8000
1F8000
1F8000
1F8000
1F8F80
1FBFE0
1FFFF0
1FE1F8
1FC0FC
1F80FC
1F80FC
1F807E
1F807E
1F807E
1F807E
1F807E
1F807E
1F807E
1F807E
1F80FC
1F80FC
1FC1F8
1FE1F0
1EFFE0
183F80
ENDCHAR

STARTCHAR c
ENCODING 99
SWIDTH 542 0
DWIDTH 21 0
BBX 19 21 1 0
BITMAP
01FC00
0FFF00
1F8780
3F07C0
7E07C0
7E07C0
7C07C0
FC0380
FC0000
FC0000
FC0000
FC0000
FC0000
FC0000
7E0000
7E00E0
7F01C0
3F8380
1FFF00
0FFE00
01F000
ENDCHAR

STARTCHAR d
ENCODING 100
SWIDTH 646 0
DWIDTH 25 0
BBX 22 29 2 0
BITMAP
007FE0
007FE0
000FE0
0007E0
0007E0
0007E0
0007E0
0007E0
07C7E0
0FF7E0
1FFBE0
3F1FE0
7E07E0
7E07E0
7C07E0
FC07E0
FC07E0
FC07E0
FC07E0
FC07E0
FC07E0
FC07E0
FC07E0
7E07E0
7E0FE0
3F1FE0
3FFBF0
1FF3FC
07C3FC
ENDCHAR

STARTCHAR e
ENCODING 101
SWIDTH 562 0
DWIDTH 21 0
BBX 19 21 1 0
BITMAP
01F800
0FFE00
1F1F00
3E0F80
3E07C0
7C07C0
7C07C0
FC07E0
FC07E0
FFFFE0
FFFFE0
FC0000
FC0000
FC0000
7C0000
7E00C0
7E01C0
3F0380
1F8F00
0FFE00
03F800
ENDCHAR

STARTCHAR f
ENCODING 102
SWIDTH 406 0
DWIDTH 15 0
BBX 18 29 1 0
BITMAP
00FF00
03FFC0
0787C0
0F87C0
0F83C0
1F8180
1F8000
1F8000
1F8000
FFF800
FFF800
1F8000
1F8000
1F8000
1F8000
1F8000
1F8000
1F8000
1F8000
1F8000
1F8000
1F8000
1F8000
1F8000
1F8000
1F8000
1F8000
FFF800
FFF800
ENDCHAR

STARTCHAR g
ENCODING 103
SWIDTH 604 0
DWIDTH 23 0
BBX 22 28 1 -7
BITMAP
01F818
0FFFFC
1F0F7C
3E0798
3E07C0
7E07E0
7E07E0
7E07E0
7E07E0
3E07C0
1F0FC0
03FF00
1FFC00
3C0000
780000
780000
7FFE00
7FFFC0
3FFFE0
03FFF0
1FFFF0
7C01F0
F800F0
F800F0
F801E0
7E03C0
3FFF80
07FC00
ENDCHAR

STARTCHAR h
ENCODING 104
SWIDTH 698 0
DWIDTH 27 0
BBX 25 29 1 0
BITMAP
FF800000
FF800000
1F800000
1F800000
1F800000
1F800000
1F800000
1F800000
1F87E000
1F9FF000
1FBFF800
1FB1F800
1FE0FC00
1F80FC00
1F80FC00
1F80FC00
1F80FC00
1F80FC00
1F80FC00
1F80FC00
1F80FC00
1F80FC00
1F80FC00
1F80FC00
1F80FC00
1F80FC00
1F80FC00
FFF7FF80
FFF7FF80
ENDCHAR

STARTCHAR i
ENCODING 105
SWIDTH 385 0
DWIDTH 15 0
BBX 13 29 1 0
BITMAP
0F00
1F80
1F80
1F80
0F00
0000
0000
0000
FFC0
FFC0
1FC0
0FC0
0FC0
0FC0
0FC0
0FC0
0FC0
0FC0
0FC0
0FC0
0FC0
0FC0
0FC0
0FC0
0FC0
0FC0
0FC0
FFF8
FFF8
ENDCHAR

STARTCHAR j
ENCODING 106
SWIDTH 375 0
DWIDTH 14 0
BBX 13 36 -2 -7
BITMAP
01E0
03F0
03F0
03F0
01E0
0000
0000
0000
1FF8
1FF8
07F8
01F8
01F8
01F8
01F8
01F8
01F8
01F8
01F8
01F8
01F8
01F8
01F8
01F8
01F8
01F8
01F8
01F8
01F8
01F0
01F0
F1F0
F9E0
F9C0
FF80
7F00
ENDCHAR

STARTCHAR k
ENCODING 107
SWIDTH 698 0
DWIDTH 27 0
BBX 25 30 1 0
BITMAP
07800000
FF800000
FF800000
1F800000
1F800000
1F800000
1F800000
1F800000
1F800000
1F87FF00
1F87FF00
1F80F000
1F80E000
1F81C000
1F870000
1F8E0000
1F9F0000
1FBF8000
1FFF8000
1FDFC000
1F8FC000
1F87E000
1F87F000
1F83F000
1F83F800
1F81F800
1F81FC00
1F80FE00
FFF3FF80
FFF3FF80
ENDCHAR

STARTCHAR l
ENCODING 108
SWIDTH 385 0
DWIDTH 15 0
BBX 13 29 1 0
BITMAP
FF80
FF80
3F80
1F80
1F80
1F80
1F80
1F80
1F80
1F80
1F80
1F80
1F80
1F80
1F80
1F80
1F80
1F80
1F80
1F80
1F80
1F80
1F80
1F80
1F80
1F80
1F80
FFF8
FFF8
ENDCHAR

STARTCHAR m
ENCODING 109
SWIDTH 1000 0
DWIDTH 38 0
BBX 36 21 1 0
BITMAP
FF03C03C00
FF0FE0FE00
7FBFF1FF00
1FBFFFFF00
1FE1FE1F80
1FC1FC1F80
1F81F81F80
1F81F81F80
1F81F81F80
1F81F81F80
1F81F81F80
1F81F81F80
1F81F81F80
1F81F81F80
1F81F81F80
1F81F81F80
1F81F81F80
1F81F81F80
1F81F81F80
FFE7FE7FF0
FFE7FE7FF0
ENDCHAR

STARTCHAR n
ENCODING 110
SWIDTH 698 0
DWIDTH 27 0
BBX 25 21 1 0
BITMAP
FF07E000
FF9FF000
3FBFF800
1FB1F800
1FE0FC00
1FC0FC00
1F80FC00
1F80FC00
1F80FC00
1F80FC00
1F80FC00
1F80FC00
1F80FC00
1F80FC00
1F80FC00
1F80FC00
1F80FC00
1F80FC00
1F80FC00
FFE7FF80
FFE7FF80
ENDCHAR

STARTCHAR o
ENCODING 111
SWIDTH 615 0
DWIDTH 23 0
BBX 21 21 1 0
BITMAP
01FC00
0FFF80
1F07C0
3F03E0
7E03F0
7E03F0
7C01F0
FC01F8
FC01F8
FC01F8
FC01F8
FC01F8
FC01F8
FC01F8
7C01F0
7E03F0
3E03F0
3F07E0
1F8FC0
07FF00
01FC00
ENDCHAR

STARTCHAR p
ENCODING 112
SWIDTH 646 0
DWIDTH 25 0
BBX 22 28 1 -7
BITMAP
FF0F80
FF3FE0
3F7FF0
1F63F0
1FC1F8
1F81F8
1F80FC
1F80FC
1F80FC
1F80FC
1F80FC
1F80FC
1F80FC
1F80FC
1F80F8
1F81F8
1FC1F8
1FE3F0
1FBFE0
1FBFC0
1F8F80
1F8000
1F8000
1F8000
1F8000
1F8000
FFF800
FFF800
ENDCHAR

STARTCHAR q
ENCODING 113
SWIDTH 646 0
DWIDTH 25 0
BBX 22 28 2 -7
BITMAP
03F060
0FFCE0
1F1FE0
3E07E0
7E07E0
7C07E0
7C07E0
FC07E0
FC07E0
FC07E0
FC07E0
FC07E0
FC07E0
FC07E0
7C07E0
7E07E0
7E0FE0
3F1FE0
1FFBE0
0FF7E0
03C7E0
0007E0
0007E0
0007E0
0007E0
0007E0
007FFC
007FFC
ENDCHAR

STARTCHAR r
ENCODING 114
SWIDTH 542 0
DWIDTH 21 0
BBX 19 21 1 0
BITMAP
FF07C0
FF1FE0
1FBBE0
1FB3E0
1FE3E0
1FC1C0
1F8000
1F8000
1F8000
1F8000
1F8000
1F8000
1F8000
1F8000
1F8000
1F8000
1F8000
1F8000
1F8000
FFF800
FFF800
ENDCHAR

STARTCHAR s
ENCODING 115
SWIDTH 510 0
DWIDTH 19 0
BBX 16 21 2 0
BITMAP
0FE0
3FFC
7C3E
700E
F00E
F006
F806
FF00
FFE0
7FF8
3FFE
1FFE
07FF
00FF
C01F
C00F
E00F
E01E
F83E
7FFC
0FE0
ENDCHAR

STARTCHAR t
ENCODING 116
SWIDTH 427 0
DWIDTH 16 0
BBX 15 28 1 0
BITMAP
0180
0180
0380
0380
0380
0780
0F80
1F80
FFFC
FFFC
1F80
1F80
1F80
1F80
1F80
1F80
1F80
1F80
1F80
1F80
1F80
1F80
1F80
1F80
0F86
0FFE
07F8
03E0
ENDCHAR

STARTCHAR u
ENCODING 117
SWIDTH 698 0
DWIDTH 27 0
BBX 25 21 1 0
BITMAP
FF8FFC00
FF8FFC00
3F81FC00
1F80FC00
1F80FC00
1F80FC00
1F80FC00
1F80FC00
1F80FC00
1F80FC00
1F80FC00
1F80FC00
1F80FC00
1F80FC00
1F80FC00
1F80FC00
1F81FC00
0FC77C00
0FFEFE00
07FCFF80
03F07F80
ENDCHAR

STARTCHAR v
ENCODING 118
SWIDTH 635 0
DWIDTH 24 0
BBX 22 21 1 0
BITMAP
FFE3FC
FFE3FC
3F0070
1F8060
1F8060
0F80E0
0FC0C0
0FC0C0
07C180
07E180
03E380
03F300
03F300
01FA00
01FE00
00FC00
00FC00
00FC00
007800
007800
003000
ENDCHAR

STARTCHAR w
ENCODING 119
SWIDTH 906 0
DWIDTH 34 0
BBX 33 21 0 0
BITMAP
FFC7FE3F80
FFC7FE3F80
3F03F00E00
1F81F80E00
1F81F80C00
0F80F80C00
0FC0FC1C00
07C1FC1800
07E1BE1800
07E37E3000
03E33E3000
03F33F3000
01F61F6000
01FE1FE000
01FE1FE000
00FC0FC000
00FC0FC000
007C07C000
0078078000
0078078000
0038038000
ENDCHAR

STARTCHAR x
ENCODING 120
SWIDTH 646 0
DWIDTH 25 0
BBX 23 21 1 0
BITMAP
FFE3FC
FFE3FC
3F8070
1F80E0
1FC0C0
0FE180
07F300
03F600
01FC00
01FC00
00FE00
007F00
00FF00
01BF80
031FC0
060FE0
0C07E0
1807F0
3C03F8
FF1FFE
FF1FFE
ENDCHAR

STARTCHAR y
ENCODING 121
SWIDTH 635 0
DWIDTH 24 0
BBX 23 28 1 -7
BITMAP
FFE1FE
FFE1FE
3F8038
1F8070
1F8060
0FC060
0FC0E0
07E0C0
07E0C0
07E180
03F180
03F300
01FB00
01FB00
00FE00
00FE00
007C00
007C00
003800
003800
001800
003000
383000
7C6000
7C6000
7CC000
3F8000
1F0000
ENDCHAR

STARTCHAR z
ENCODING 122
SWIDTH 521 0
DWIDTH 20 0
BBX 17 21 1 0
BITMAP
7FFF80
7FFF80
781F80
703F00
607E00
607E00
60FC00
00FC00
01F800
03F000
03F000
07E000
0FC000
0FC080
1F8180
1F8180
3F0180
7E0380
7C0780
FFFF80
FFFF80
ENDCHAR

STARTCHAR braceleft
ENCODING 123
SWIDTH 396 0
DWIDTH 15 0
BBX 11 33 2 -5
BITMAP
01E0
0380
0F00
0E00
1E00
1E00
1E00
1F00
1F00
0F00
0F00
0F00
0F00
0E00
1C00
3800
E000
7000
1C00
0E00
0E00
0F00
0F00
0F00
0F00
1F00
1E00
1E00
1E00
1E00
0E00
0700
03E0
ENDCHAR

STARTCHAR bar
ENCODING 124
SWIDTH 542 0
DWIDTH 21 0
BBX 3 32 9 -1
BITMAP
E0
E0
E0
E0
E0
E0
E0
E0
E0
E0
E0
E0
E0
E0
E0
E0
E0
E0
E0
E0
E0
E0
E0
E0
E0
E0
E0
E0
E0
E0
E0
E0
ENDCHAR

STARTCHAR braceright
ENCODING 125
SWIDTH 396 0
DWIDTH 15 0
BBX 11 33 2 -5
BITMAP
F000
3C00
1E00
0E00
0F00
0F00
0F00
1F00
1F00
1E00
1E00
1E00
1E00
0E00
0700
0380
0060
01C0
0700
0E00
0E00
1E00
1E00
1E00
1F00
1F00
0F00
0F00
0F00
0F00
0E00
1C00
F800
ENDCHAR

STARTCHAR asciitilde
ENCODING 126
SWIDTH 667 0
DWIDTH 25 0
BBX 20 6 3 9
BITMAP
1E0010
7FC030
FFF020
C1FFE0
803FC0
800780
ENDCHAR

STARTCHAR space
ENCODING 160
SWIDTH 250 0
DWIDTH 12 0
BBX 0 0 0 0
BITMAP
ENDCHAR

STARTCHAR afii10023
ENCODING 161
SWIDTH 719 0
DWIDTH 27 0
BBX 25 36 1 0
BITMAP
01E0F000
03F1F800
03F1F800
03F1F800
01E0F000
00000000
00000000
FFFFFF00
FFFFFF00
0FE03F00
0FC00F00
0FC00700
0FC00700
0FC00300
0FC00300
0FC0C300
0FC0C300
0FC1C000
0FC1C000
0FC7C000
0FFFC000
0FFFC000
0FC3C000
0FC1C000
0FC0C000
0FC0C180
0FC0C180
0FC0C180
0FC00180
0FC00380
0FC00380
0FC00780
0FC00F80
1FE03F80
FFFFFF80
FFFFFF80
ENDCHAR

STARTCHAR afii10051
ENCODING 162
SWIDTH 927 0
DWIDTH 35 0
BBX 33 29 1 0
BITMAP
7FFFFF8000
7FFFFF8000
7C3F0F8000
F03F078000
F03F038000
E03F018000
E03F018000
C03F00C000
003F000000
003F000000
003F0FF000
003F3FFC00
003F7FFE00
003FF0FE00
003FC07F00
003F007F00
003F003F80
003F003F80
003F003F80
003F003F80
003F003F80
003F003F80
003F003F80
003F003F00
003F003F00
003F007E00
007F83FE00
03FFE3FC00
03FFE0F000
ENDCHAR

STARTCHAR afii10052
ENCODING 163
SWIDTH 687 0
DWIDTH 26 0
BBX 24 37 1 0
BITMAP
000700
000F80
001F80
003F00
00FC00
004000
000000
000000
FFFFFE
FFFFFF
0FE07F
0FC03F
0FC01F
0FC00F
0FC00F
0FC007
0FC007
0FC003
0FC000
0FC000
0FC000
0FC000
0FC000
0FC000
0FC000
0FC000
0FC000
0FC000
0FC000
0FC000
0FC000
0FC000
0FC000
0FC000
1FE000
FFFE00
FFFE00
ENDCHAR

STARTCHAR afii10053
ENCODING 164
SWIDTH 750 0
DWIDTH 29 0
BBX 25 29 2 0
BITMAP
003FE000
01FFFE00
07F07F00
0FC01F00
1FC00F00
3F800700
3F000700
7F000700
7F000300
7F000300
FE000000
FE000000
FE000000
FFFF8000
FFFF8000
FE000000
FE000000
FE000000
FE000000
FF000180
7F000380
7F000300
3F800700
3F800F00
1FC01E00
0FF03C00
07FFF800
01FFE000
007F8000
ENDCHAR

STARTCHAR afii10054
ENCODING 165
SWIDTH 646 0
DWIDTH 25 0
BBX 21 29 2 0
BITMAP
03FE00
0FFFC0
3F07E0
3E01E0
7C00F0
7C00F0
FC0070
FC0070
FE0070
FF8070
7FE000
7FF800
3FFE00
1FFF80
0FFFC0
01FFE0
007FF0
001FF0
C00FF8
C003F8
C001F8
E001F8
E001F8
F001F0
F001F0
F803E0
FE0FC0
7FFF80
0FFC00
ENDCHAR

STARTCHAR afii10055
ENCODING 166
SWIDTH 448 0
DWIDTH 17 0
BBX 14 29 2 0
BITMAP
FFFC
FFFC
0FE0
0FC0
0FC0
0FC0
0FC0
0FC0
0FC0
0FC0
0FC0
0FC0
0FC0
0FC0
0FC0
0FC0
0FC0
0FC0
0FC0
0FC0
0FC0
0FC0
0FC0
0FC0
0FC0
0FC0
1FE0
FFFC
FFFC
ENDCHAR

STARTCHAR afii10056
ENCODING 167
SWIDTH 448 0
DWIDTH 17 0
BBX 15 36 1 0
BITMAP
783C
FC7E
FC7E
FC7E
783C
0000
0000
7FFE
7FFE
07F0
07E0
07E0
07E0
07E0
07E0
07E0
07E0
07E0
07E0
07E0
07E0
07E0
07E0
07E0
07E0
07E0
07E0
07E0
07E0
07E0
07E0
07E0
07E0
0FF0
7FFE
7FFE
ENDCHAR

STARTCHAR afii10057
ENCODING 168
SWIDTH 635 0
DWIDTH 24 0
BBX 23 29 1 0
BITMAP
00FFFE
00FFFE
000FF0
0007E0
0007E0
0007E0
0007E0
0007E0
0007E0
0007E0
0007E0
0007E0
0007E0
0007E0
0007E0
0007E0
0007E0
1807E0
7C07E0
7E07E0
FE07E0
FE07E0
FE07E0
FC0FE0
780FE0
780FC0
3C1F80
1FFF00
07FC00
ENDCHAR

STARTCHAR afii10058
ENCODING 169
SWIDTH 1164 0
DWIDTH 44 0
BBX 43 29 0 0
BITMAP
03FFFFFE0000
03FFFFFE0000
007C07F00000
003C07E00000
003807E00000
003807E00000
003807E00000
003807E00000
003807E00000
003807E00000
003807E00000
003807E00000
003807E00000
003007FFF800
003007FFFF00
003007E07F80
003007E03FC0
007007E01FC0
007007E00FE0
007007E00FE0
007007E00FE0
007007E00FE0
786007E00FE0
7C6007E00FE0
FCE007E01FC0
FEC007E03FC0
7FC07FF0FF80
7F807FFFFE00
1F007FFFF800
ENDCHAR

STARTCHAR afii10059
ENCODING 170
SWIDTH 1171 0
DWIDTH 44 0
BBX 42 29 1 0
BITMAP
FFFCFFFC0000
FFFCFFFC0000
1FE01FC00000
0FC00FC00000
0FC00FC00000
0FC00FC00000
0FC00FC00000
0FC00FC00000
0FC00FC00000
0FC00FC00000
0FC00FC00000
0FC00FC00000
0FC00FC00000
0FFFFFFFF000
0FFFFFFFFE00
0FC00FC0FF00
0FC00FC03F80
0FC00FC03F80
0FC00FC01FC0
0FC00FC01FC0
0FC00FC01FC0
0FC00FC01FC0
0FC00FC01FC0
0FC00FC01FC0
0FC00FC03F80
0FC00FC03F80
1FE01FE0FF00
FFFCFFFFFC00
FFFCFFFFF000
ENDCHAR

STARTCHAR afii10060
ENCODING 171
SWIDTH 946 0
DWIDTH 36 0
BBX 35 29 0 0
BITMAP
7FFFFFC000
7FFFFFC000
7C3F0FC000
F03F03C000
F03F01C000
E03F01C000
E03F00C000
C03F00C000
003F000000
003F000000
003F03E000
003F1FF800
003F7FFC00
003FFFFE00
003FE0FE00
003F80FE00
003F007E00
003F007E00
003F007E00
003F007E00
003F007E00
003F007E00
003F007E00
003F007E00
003F007E00
003F007E00
007F80FF00
03FFF7FFE0
03FFF7FFE0
ENDCHAR

STARTCHAR afii10061
ENCODING 172
SWIDTH 831 0
DWIDTH 32 0
BBX 30 36 1 0
BITMAP
00007000
0001F800
0003F800
0007F000
000F8000
00000000
00000000
FFFC00E0
FFFC03F0
1FE007F8
0FC007F8
0FC00FF8
0FC00FF0
0FC01CE0
0FC01800
0FC01800
0FC03800
0FC03000
0FC07000
0FC06000
0FC1A000
0FFFC000
0FFFF800
0FC1FC00
0FC0FC00
0FC0FE00
0FC07E00
0FC07F00
0FC03F00
0FC03F80
0FC01F80
0FC01FC0
0FC00FC0
1FE00FE0
FFFC0FFC
FFFC07FC
ENDCHAR

STARTCHAR hyphen
ENCODING 173
SWIDTH 323 0
DWIDTH 12 0
BBX 10 4 1 8
BITMAP
FFC0
FFC0
FFC0
FFC0
ENDCHAR

STARTCHAR afii10062
ENCODING 174
SWIDTH 748 0
DWIDTH 28 0
BBX 28 38 0 0
BITMAP
00601800
00F03C00
00F03C00
00F03C00
00F03C00
007FF800
000FC000
00000000
00000000
FFF81FF0
FFF81FF0
3FC003C0
1FC00380
1FE00380
0FE00300
0FE00700
07F00600
07F00E00
03F80C00
03F80C00
01FC1800
01FC1800
00FE3800
00FE3000
007F7000
007F6000
003F6000
003FC000
001FC000
001FC000
040F8000
1F0F8000
1F070000
1F070000
1F860000
1F9C0000
0FF80000
07F00000
ENDCHAR

STARTCHAR afii10145
ENCODING 175
SWIDTH 865 0
DWIDTH 33 0
BBX 31 36 1 -7
BITMAP
FFFC7FFE
FFFC7FFE
1FE00FF0
0FC007E0
0FC007E0
0FC007E0
0FC007E0
0FC007E0
0FC007E0
0FC007E0
0FC007E0
0FC007E0
0FC007E0
0FC007E0
0FC007E0
0FC007E0
0FC007E0
0FC007E0
0FC007E0
0FC007E0
0FC007E0
0FC007E0
0FC007E0
0FC007E0
0FC007E0
0FC007E0
1FE00FF0
FFFFFFFE
FFFFFFFE
001FF000
000FE000
0007C000
00038000
00038000
00038000
00038000
ENDCHAR

STARTCHAR afii10017
ENCODING 176
SWIDTH 854 0
DWIDTH 32 0
BBX 31 29 1 0
BITMAP
00038000
00038000
0007C000
0007C000
000FE000
000FE000
001FE000
001FF000
001BF000
003BF800
0031F800
0071FC00
0061FC00
00E0FC00
00C0FE00
00C07E00
01C07F00
01807F00
03803F00
03FFFF80
07FFFF80
07001FC0
06001FC0
0E000FC0
0E000FE0
1E0007E0
3F000FF0
FFE07FFE
FFE07FFE
ENDCHAR

STARTCHAR afii10018
ENCODING 177
SWIDTH 792 0
DWIDTH 30 0
BBX 27 29 1 0
BITMAP
FFFFFF00
FFFFFF00
1FE07F00
0FC01F00
0FC00F00
0FC00700
0FC00700
0FC00780
0FC00380
0FC00380
0FC00000
0FC00000
0FC00000
0FFFF800
0FFFFF00
0FC07F80
0FC01FC0
0FC01FC0
0FC00FE0
0FC00FE0
0FC00FE0
0FC00FE0
0FC00FE0
0FC00FE0
0FC01FC0
0FC01FC0
1FE07F80
FFFFFE00
FFFFF800
ENDCHAR

STARTCHAR afii10019
ENCODING 178
SWIDTH 792 0
DWIDTH 30 0
BBX 27 29 1 0
BITMAP
FFFFF000
FFFFFC00
0FC0FF00
0FC03F00
0FC03F80
0FC01F80
0FC01F80
0FC01F80
0FC01F80
0FC01F80
0FC03F00
0FC07E00
0FC0FC00
0FFFC000
0FFFF800
0FC07F00
0FC01F80
0FC01FC0
0FC00FC0
0FC00FE0
0FC00FE0
0FC00FE0
0FC00FE0
0FC00FE0
0FC01FC0
0FC01FC0
1FE07F80
FFFFFF00
FFFFF800
ENDCHAR

STARTCHAR afii10020
ENCODING 179
SWIDTH 687 0
DWIDTH 26 0
BBX 24 29 1 0
BITMAP
FFFFFE
FFFFFF
0FE07F
0FC03F
0FC01F
0FC00F
0FC00F
0FC007
0FC007
0FC003
0FC000
0FC000
0FC000
0FC000
0FC000
0FC000
0FC000
0FC000
0FC000
0FC000
0FC000
0FC000
0FC000
0FC000
0FC000
0FC000
1FE000
FFFE00
FFFE00
ENDCHAR

STARTCHAR afii10021
ENCODING 180
SWIDTH 813 0
DWIDTH 31 0
BBX 29 35 0 -6
BITMAP
07FFFFF8
07FFFFF8
00F81FC0
00F01F80
00701F80
00701F80
00701F80
00701F80
00601F80
00601F80
00601F80
00601F80
00601F80
00601F80
00E01F80
00E01F80
00C01F80
00C01F80
00C01F80
01C01F80
01801F80
03801F80
03801F80
07001F80
06001F80
0E001F80
18001FC0
FFFFFFF8
FFFFFFF8
FC0001F8
F0000078
E0000038
E0000018
C0000018
C0000018
ENDCHAR

STARTCHAR afii10022
ENCODING 181
SWIDTH 719 0
DWIDTH 27 0
BBX 25 29 1 0
BITMAP
FFFFFF00
FFFFFF00
0FE03F00
0FC00F00
0FC00700
0FC00700
0FC00300
0FC00300
0FC0C300
0FC0C300
0FC1C000
0FC1C000
0FC7C000
0FFFC000
0FFFC000
0FC3C000
0FC1C000
0FC0C000
0FC0C180
0FC0C180
0FC0C180
0FC00180
0FC00380
0FC00380
0FC00780
0FC00F80
1FE03F80
FFFFFF80
FFFFFF80
ENDCHAR

STARTCHAR afii10024
ENCODING 182
SWIDTH 1189 0
DWIDTH 45 0
BBX 44 29 1 0
BITMAP
1E01FFF80700
3F81FFF81FC0
3F803FC01FC0
3FC01F803FC0
3FC01F803FC0
3FE01F807FC0
1CE01F807380
00701F806000
00701F80E000
00301F80C000
00381F81C000
00381F81C000
001C1F838000
00161F878000
000FFFFE0000
007FFFFFE000
00FE1F87F000
01FC1F83F800
01F81F81F800
03F81F81FC00
03F01F80FC00
07F01F80FE00
07F01F80FE00
0FE01F807F00
0FE01F807F00
1FC01F803F80
1FC03FC03F80
FF81FFF81FF0
FF81FFF81FF0
ENDCHAR

STARTCHAR afii10025
ENCODING 183
SWIDTH 689 0
DWIDTH 26 0
BBX 23 29 2 0
BITMAP
03FF80
1FFFE0
3F07F0
3C01F8
7801FC
7800FC
7000FC
7000FC
6000FC
0001FC
0001F8
0003F0
000FE0
01FC00
01FFE0
0007F0
0001FC
0001FC
0000FE
0000FE
0000FE
C000FE
C000FE
E001FC
7001FC
3C07F8
1FFFF0
0FFFC0
01FE00
ENDCHAR

STARTCHAR afii10026
ENCODING 184
SWIDTH 880 0
DWIDTH 33 0
BBX 31 29 1 0
BITMAP
FFFC7FFE
FFFC7FFE
1FE00FF0
0FC007E0
0FC00FE0
0FC00FE0
0FC01FE0
0FC01FE0
0FC03BE0
0FC077E0
0FC067E0
0FC0E7E0
0FC1C7E0
0FC187E0
0FC387E0
0FC307E0
0FC707E0
0FCE07E0
0FCC07E0
0FDC07E0
0FD807E0
0FF807E0
0FF007E0
0FE007E0
0FE007E0
0FC007E0
1FE00FF0
FFFC7FFE
FFFC7FFE
ENDCHAR

STARTCHAR afii10027
ENCODING 185
SWIDTH 880 0
DWIDTH 33 0
BBX 31 38 1 0
BITMAP
00300C00
00781E00
00781E00
00781E00
00781E00
003FFC00
0007E000
00000000
00000000
FFFC7FFE
FFFC7FFE
1FE00FF0
0FC007E0
0FC00FE0
0FC00FE0
0FC01FE0
0FC01FE0
0FC03BE0
0FC077E0
0FC067E0
0FC0E7E0
0FC1C7E0
0FC187E0
0FC387E0
0FC307E0
0FC707E0
0FCE07E0
0FCC07E0
0FDC07E0
0FD807E0
0FF807E0
0FF007E0
0FE007E0
0FE007E0
0FC007E0
1FE00FF0
FFFC7FFE
FFFC7FFE
ENDCHAR

STARTCHAR afii10028
ENCODING 186
SWIDTH 831 0
DWIDTH 32 0
BBX 30 29 1 0
BITMAP
FFFC00E0
FFFC03F0
1FE007F8
0FC007F8
0FC00FF8
0FC00FF0
0FC01CE0
0FC01800
0FC01800
0FC03800
0FC03000
0FC07000
0FC06000
0FC1A000
0FFFC000
0FFFF800
0FC1FC00
0FC0FC00
0FC0FE00
0FC07E00
0FC07F00
0FC03F00
0FC03F80
0FC01F80
0FC01FC0
0FC00FC0
1FE00FE0
FFFC0FFC
FFFC07FC
ENDCHAR

STARTCHAR afii10029
ENCODING 187
SWIDTH 844 0
DWIDTH 32 0
BBX 30 29 1 0
BITMAP
03FFFFFC
03FFFFFC
007C0FE0
00780FC0
00700FC0
00700FC0
00700FC0
00300FC0
00700FC0
00700FC0
00700FC0
00700FC0
00700FC0
00700FC0
00600FC0
00600FC0
00600FC0
00600FC0
00600FC0
00600FC0
00600FC0
00C00FC0
78C00FC0
F8C00FC0
F8C00FC0
FD800FC0
FF801FE0
FF00FFFC
7E00FFFC
ENDCHAR

STARTCHAR afii10030
ENCODING 188
SWIDTH 1052 0
DWIDTH 40 0
BBX 38 29 1 0
BITMAP
FFF0003FFC
FDF80077FC
1DF8006FE0
0DFC006FC0
0DFC00EFC0
0CFC00CFC0
0CFE00CFC0
0CFE01CFC0
0C7E018FC0
0C7F018FC0
0C3F038FC0
0C3F830FC0
0C3F830FC0
0C1F870FC0
0C1FC60FC0
0C1FCE0FC0
0C0FCC0FC0
0C0FEC0FC0
0C07EC0FC0
0C07F80FC0
0C07F80FC0
0C03F80FC0
0C03F00FC0
0C03F00FC0
0C01F00FC0
1E01E00FC0
3F00E01FC0
FFE0E0FFFC
FFE0C0FFFC
ENDCHAR

STARTCHAR afii10031
ENCODING 189
SWIDTH 865 0
DWIDTH 33 0
BBX 31 29 1 0
BITMAP
FFFC7FFE
FFFC7FFE
1FE00FF0
0FC007E0
0FC007E0
0FC007E0
0FC007E0
0FC007E0
0FC007E0
0FC007E0
0FC007E0
0FC007E0
0FC007E0
0FFFFFE0
0FFFFFE0
0FC007E0
0FC007E0
0FC007E0
0FC007E0
0FC007E0
0FC007E0
0FC007E0
0FC007E0
0FC007E0
0FC007E0
0FC007E0
1FE00FF0
FFFC7FFE
FFFC7FFE
ENDCHAR

STARTCHAR afii10032
ENCODING 190
SWIDTH 823 0
DWIDTH 31 0
BBX 27 29 2 0
BITMAP
007FC000
01FFF000
07E0FC00
0FC07E00
1F803F00
3F001F80
3F001F80
7F001FC0
7F000FC0
7E000FC0
FE000FE0
FE000FE0
FE000FE0
FE000FE0
FE000FE0
FE000FE0
FE000FE0
FE000FE0
FE000FE0
7E000FC0
7F001FC0
7F001FC0
3F001F80
3F001F80
1F803F00
0FC07E00
07E0FC00
01FFF000
007FC000
ENDCHAR

STARTCHAR afii10033
ENCODING 191
SWIDTH 865 0
DWIDTH 33 0
BBX 31 29 1 0
BITMAP
FFFFFFFE
FFFFFFFE
0FC007F0
0FC007E0
0FC007E0
0FC007E0
0FC007E0
0FC007E0
0FC007E0
0FC007E0
0FC007E0
0FC007E0
0FC007E0
0FC007E0
0FC007E0
0FC007E0
0FC007E0
0FC007E0
0FC007E0
0FC007E0
0FC007E0
0FC007E0
0FC007E0
0FC007E0
0FC007E0
0FC007E0
1FE00FF0
FFFC7FFE
FFFC7FFE
ENDCHAR

STARTCHAR afii10034
ENCODING 192
SWIDTH 729 0
DWIDTH 28 0
BBX 26 29 1 0
BITMAP
FFFFF000
FFFFFC00
0FE0FF00
0FC03F80
0FC03F80
0FC01FC0
0FC01FC0
0FC01FC0
0FC01FC0
0FC01FC0
0FC01FC0
0FC03F80
0FC07F00
0FC0FF00
0FFFFC00
0FFFF000
0FC00000
0FC00000
0FC00000
0FC00000
0FC00000
0FC00000
0FC00000
0FC00000
0FC00000
0FC00000
1FE00000
FFFF0000
FFFF0000
ENDCHAR

STARTCHAR afii10035
ENCODING 193
SWIDTH 750 0
DWIDTH 29 0
BBX 25 29 2 0
BITMAP
003FF000
01FFFE00
07F03F00
0FE01F00
1FC00F00
1F800700
3F800700
7F000700
7F000300
7F000300
FE000000
FE000000
FE000000
FE000000
FE000000
FE000000
FE000000
FE000000
FF000000
FF000180
7F000380
7F000300
3F800700
3F800F00
1FC01E00
0FF03C00
07FFF800
01FFE000
003F8000
ENDCHAR

STARTCHAR afii10036
ENCODING 194
SWIDTH 729 0
DWIDTH 28 0
BBX 26 29 1 0
BITMAP
FFFFFFC0
FFFFFFC0
FC3F0FC0
F03F03C0
F03F03C0
E03F01C0
E03F01C0
C03F00C0
C03F00C0
C03F00C0
C03F00C0
003F0000
003F0000
003F0000
003F0000
003F0000
003F0000
003F0000
003F0000
003F0000
003F0000
003F0000
003F0000
003F0000
003F0000
003F0000
007F8000
03FFF800
03FFF800
ENDCHAR

STARTCHAR afii10037
ENCODING 195
SWIDTH 748 0
DWIDTH 28 0
BBX 28 29 0 0
BITMAP
FFFC0FF0
FFFC0FF0
3FC003C0
1FC00380
0FE00380
0FE00300
07F00700
07F00600
03F80E00
03F80C00
01F80C00
01FC1C00
00FC1800
00FE3800
007E3000
007F3000
003F6000
003FA000
001FE000
001FC000
000FC000
040F8000
1F078000
1F070000
1F830000
1F860000
1F8E0000
0FFC0000
03F00000
ENDCHAR

STARTCHAR afii10038
ENCODING 196
SWIDTH 934 0
DWIDTH 35 0
BBX 32 29 2 0
BITMAP
007FFE00
007FFE00
000FF000
0007E000
00FFFF00
07FFFFE0
1FC7E3F8
3F87E1FC
3F07E0FC
7E07E07E
7E07E07E
7E07E07F
FE07E07F
FE07E07F
FE07E07F
FE07E07F
FE07E07F
7E07E07F
7E07E07E
7F07E07E
3F07E0FC
3F87E1FC
0FC7E3F0
07FFFFE0
00FFFF00
0007E000
000FF000
007FFE00
007FFE00
ENDCHAR

STARTCHAR afii10039
ENCODING 197
SWIDTH 802 0
DWIDTH 30 0
BBX 29 29 1 0
BITMAP
FFFC7FF0
FFFC7FF0
7FE01FC0
1FC00F00
1FE00E00
0FE01C00
07F01C00
07F83800
03FC7000
01FCE000
00FEE000
00FFC000
007F8000
003F8000
003FC000
001FE000
003FF000
003FF000
0077F800
00E3FC00
01C1FC00
0381FE00
0380FF00
07007F00
0F007F80
1F003FC0
3F803FE0
FFE1FFF8
FFE1FFF8
ENDCHAR

STARTCHAR afii10040
ENCODING 198
SWIDTH 882 0
DWIDTH 34 0
BBX 32 36 1 -7
BITMAP
FFFC7FFE
FFFC7FFE
1FE00FF0
0FC007E0
0FC007E0
0FC007E0
0FC007E0
0FC007E0
0FC007E0
0FC007E0
0FC007E0
0FC007E0
0FC007E0
0FC007E0
0FC007E0
0FC007E0
0FC007E0
0FC007E0
0FC007E0
0FC007E0
0FC007E0
0FC007E0
0FC007E0
0FC007E0
0FC007E0
0FC007E0
1FC007F0
FFFFFFFF
FFFFFFFF
0000007F
0000001F
0000000F
00000007
00000007
00000003
00000003
ENDCHAR

STARTCHAR afii10041
ENCODING 199
SWIDTH 817 0
DWIDTH 31 0
BBX 29 29 2 0
BITMAP
FFF9FFF8
FFF9FFF8
3FC03FC0
1F801F80
1F801F80
1F801F80
1F801F80
1F801F80
1F801F80
1F801F80
1F801F80
1F801F80
1FC01F80
1FC07F80
0FE1FF80
0FFFDF80
07FF9F80
01FE1F80
00001F80
00001F80
00001F80
00001F80
00001F80
00001F80
00001F80
00001F80
00003FC0
0001FFF8
0001FFF8
ENDCHAR

STARTCHAR afii10042
ENCODING 200
SWIDTH 1133 0
DWIDTH 43 0
BBX 41 29 1 0
BITMAP
FFE1FFC7FF80
FFE1FFC7FF80
3FC07F01FE00
1F807E00FC00
1F807E00FC00
1F807E00FC00
1F807E00FC00
1F807E00FC00
1F807E00FC00
1F807E00FC00
1F807E00FC00
1F807E00FC00
1F807E00FC00
1F807E00FC00
1F807E00FC00
1F807E00FC00
1F807E00FC00
1F807E00FC00
1F807E00FC00
1F807E00FC00
1F807E00FC00
1F807E00FC00
1F807E00FC00
1F807E00FC00
1F807E00FC00
1F807E00FC00
3F807E00FE00
FFFFFFFFFF80
FFFFFFFFFF80
ENDCHAR

STARTCHAR afii10043
ENCODING 201
SWIDTH 1153 0
DWIDTH 44 0
BBX 42 36 1 -7
BITMAP
FFE1FFC7FF80
FFE1FFC7FF80
3FC07F01FE00
1F807E00FC00
1F807E00FC00
1F807E00FC00
1F807E00FC00
1F807E00FC00
1F807E00FC00
1F807E00FC00
1F807E00FC00
1F807E00FC00
1F807E00FC00
1F807E00FC00
1F807E00FC00
1F807E00FC00
1F807E00FC00
1F807E00FC00
1F807E00FC00
1F807E00FC00
1F807E00FC00
1F807E00FC00
1F807E00FC00
1F807E00FC00
1F807E00FC00
1F807E00FC00
3F807E00FE00
FFFFFFFFFFC0
FFFFFFFFFFC0
000000001FC0
0000000007C0
0000000003C0
0000000001C0
0000000001C0
0000000000C0
0000000000C0
ENDCHAR

STARTCHAR afii10044
ENCODING 202
SWIDTH 937 0
DWIDTH 36 0
BBX 33 29 1 0
BITMAP
FFFFF00000
FFFFF00000
FE3F800000
F83F000000
F03F000000
E03F000000
E03F000000
E03F000000
C03F000000
C03F000000
003F000000
003F000000
003F000000
003FFFF000
003FFFFC00
003F01FE00
003F007F00
003F007F00
003F003F80
003F003F80
003F003F80
003F003F80
003F003F80
003F003F80
003F007F00
003F007F00
007F81FE00
03FFFFF800
03FFFFE000
ENDCHAR

STARTCHAR afii10045
ENCODING 203
SWIDTH 1177 0
DWIDTH 45 0
BBX 42 29 1 0
BITMAP
FFFC000FFFC0
FFFC000FFFC0
1FE00001FE00
0FC00000FC00
0FC00000FC00
0FC00000FC00
0FC00000FC00
0FC00000FC00
0FC00000FC00
0FC00000FC00
0FC00000FC00
0FC00000FC00
0FC00000FC00
0FFFFC00FC00
0FFFFF00FC00
0FC07F80FC00
0FC01FC0FC00
0FC01FC0FC00
0FC00FE0FC00
0FC00FE0FC00
0FC00FE0FC00
0FC00FE0FC00
0FC00FE0FC00
0FC00FE0FC00
0FC01FC0FC00
0FC01FC0FC00
1FE07F81FE00
FFFFFF0FFFC0
FFFFF80FFFC0
ENDCHAR

STARTCHAR afii10046
ENCODING 204
SWIDTH 781 0
DWIDTH 30 0
BBX 27 29 1 0
BITMAP
FFFC0000
FFFC0000
1FE00000
0FC00000
0FC00000
0FC00000
0FC00000
0FC00000
0FC00000
0FC00000
0FC00000
0FC00000
0FC00000
0FFFFC00
0FFFFF00
0FC07F80
0FC01FC0
0FC00FC0
0FC00FE0
0FC00FE0
0FC00FE0
0FC00FE0
0FC00FE0
0FC00FE0
0FC01FC0
0FC01FC0
1FE07F80
FFFFFE00
FFFFF800
ENDCHAR

STARTCHAR afii10047
ENCODING 205
SWIDTH 750 0
DWIDTH 29 0
BBX 25 29 2 0
BITMAP
07FE0000
3FFFC000
7F07F000
7C01F800
7800FC00
78007E00
70007E00
70007F00
60003F00
60003F80
00003F80
00003F80
00003F80
00FFFF80
00FFFF80
00003F80
00003F80
00003F80
00003F80
C0007F80
E0007F00
E0007F00
7000FE00
7000FE00
3801FC00
1E07F800
0FFFF000
07FFC000
00FF0000
ENDCHAR

STARTCHAR afii10048
ENCODING 206
SWIDTH 1219 0
DWIDTH 46 0
BBX 43 29 1 0
BITMAP
FFFC007FC000
FFFC03FFF000
1FE007E0FC00
0FC00F807E00
0FC01F803F00
0FC03F001F80
0FC07F001F80
0FC07E001FC0
0FC07E000FC0
0FC0FE000FE0
0FC0FE000FE0
0FC0FE000FE0
0FC0FE000FE0
0FFFFE000FE0
0FFFFE000FE0
0FC0FE000FE0
0FC0FE000FE0
0FC0FE000FE0
0FC0FE000FE0
0FC0FE000FC0
0FC07E001FC0
0FC07F001FC0
0FC03F001F80
0FC03F003F80
0FC01F803F00
0FC00FC07E00
1FE007E1FC00
FFFC03FFF000
FFFC007F8000
ENDCHAR

STARTCHAR afii10049
ENCODING 207
SWIDTH 802 0
DWIDTH 30 0
BBX 29 29 1 0
BITMAP
00FFFFF8
03FFFFF8
07F83FC0
0FE01F80
0FE01F80
1FC01F80
1FC01F80
1FC01F80
1FC01F80
0FC01F80
0FE01F80
07E01F80
03F81F80
00BFFF80
007FFF80
01FC1F80
01F81F80
03F81F80
03F01F80
07F01F80
07F01F80
0FE01F80
0FE01F80
1FC01F80
1FC01F80
1F801F80
3F803FC0
FF81FFF8
FF01FFF8
ENDCHAR

STARTCHAR afii10065
ENCODING 208
SWIDTH 615 0
DWIDTH 23 0
BBX 22 21 1 0
BITMAP
03FE00
0FFF80
3E0FC0
3E07C0
3E07E0
7E07E0
3C07E0
1807E0
0007E0
01FFE0
1FFBE0
3F87E0
7E07E0
FC07E0
FC07E0
FC07E0
FC07E0
FE1FE0
7FFFF4
3FF3FC
0FC1FC
ENDCHAR

STARTCHAR afii10066
ENCODING 209
SWIDTH 615 0
DWIDTH 23 0
BBX 21 30 1 0
BITMAP
000018
000078
01FFF0
07FFF0
0FFFE0
1FFF80
3E0000
380000
700000
60FC00
63FF80
6F87C0
CF07E0
DE03F0
DE03F0
FE01F8
FC01F8
FC01F8
FC01F8
FC01F8
FC01F8
FC01F8
7C01F8
7E01F0
7E03F0
3E03E0
3F07E0
1F8FC0
07FF00
01FC00
ENDCHAR

STARTCHAR afii10067
ENCODING 210
SWIDTH 646 0
DWIDTH 25 0
BBX 22 21 1 0
BITMAP
FFFF80
FFFFE0
1F83F0
1F81F8
1F81F8
1F81F8
1F81F8
1F81F0
1F83E0
1FFE00
1FFFE0
1F83F0
1F81F8
1F80FC
1F80FC
1F80FC
1F80FC
1F81FC
1F83F8
FFFFF0
FFFFC0
ENDCHAR

STARTCHAR afii10068
ENCODING 211
SWIDTH 577 0
DWIDTH 22 0
BBX 20 21 1 0
BITMAP
FFFFE0
FFFFF0
1F81F0
1F80F0
1F8070
1F8070
1F8030
1F8030
1F8000
1F8000
1F8000
1F8000
1F8000
1F8000
1F8000
1F8000
1F8000
1F8000
1F8000
FFF000
FFF000
ENDCHAR

STARTCHAR afii10069
ENCODING 212
SWIDTH 662 0
DWIDTH 25 0
BBX 24 26 0 -5
BITMAP
0FFFFF
0FFFFF
03C1F8
01C1F8
01C1F8
0181F8
0181F8
0181F8
0181F8
0181F8
0181F8
0181F8
0301F8
0301F8
0301F8
0601F8
0601F8
0C01F8
1001F8
FFFFFF
FFFFFF
F8001F
E00007
E00007
C00003
C00003
ENDCHAR

STARTCHAR afii10070
ENCODING 213
SWIDTH 562 0
DWIDTH 21 0
BBX 19 21 1 0
BITMAP
01F800
0FFE00
1F1F00
3E0F80
3E07C0
7C07C0
7C07C0
FC07E0
FC07E0
FFFFE0
FFFFE0
FC0000
FC0000
FC0000
7C0000
7E00C0
7E01C0
3F0380
1F8F00
0FFE00
03F800
ENDCHAR

STARTCHAR afii10072
ENCODING 214
SWIDTH 936 0
DWIDTH 36 0
BBX 34 21 1 0
BITMAP
3C1FFE0F80
7E1FFE1FC0
FF03F03FC0
FF03F037C0
7183F06380
0183F06000
0183F06000
00C3F0C000
0043F0C000
00FFFF8000
03FFFFF000
03E3F1F000
07E3F1F800
07C3F0F800
0FC3F0FC00
0F83F07C00
1F83F07E00
1F03F03F00
3F03F03F00
FE1FFE1FC0
FE1FFE1FC0
ENDCHAR

STARTCHAR afii10073
ENCODING 215
SWIDTH 531 0
DWIDTH 20 0
BBX 17 21 2 0
BITMAP
0FF000
3FFE00
3C3F00
781F80
701F80
701F80
601F00
003F00
007E00
03C000
03F800
007E00
003F00
701F80
F81F80
F81F80
F81F80
F81F00
783F00
3FFE00
0FF000
ENDCHAR

STARTCHAR afii10074
ENCODING 216
SWIDTH 708 0
DWIDTH 27 0
BBX 25 21 1 0
BITMAP
FFF3FF80
FFF3FF80
1F80FC00
1F80FC00
1F80FC00
1F81FC00
1F83FC00
1F837C00
1F86FC00
1F8CFC00
1F9CFC00
1F98FC00
1FB0FC00
1FB0FC00
1FE0FC00
1FC0FC00
1FC0FC00
1F80FC00
1F80FC00
FFF3FF80
FFF3FF80
ENDCHAR

STARTCHAR afii10075
ENCODING 217
SWIDTH 708 0
DWIDTH 27 0
BBX 25 29 1 0
BITMAP
00C0C000
01E1E000
01C0E000
01C1E000
00FFC000
001E0000
00000000
00000000
FFF3FF80
FFF3FF80
1F80FC00
1F80FC00
1F80FC00
1F81FC00
1F83FC00
1F837C00
1F86FC00
1F8CFC00
1F9CFC00
1F98FC00
1FB0FC00
1FB0FC00
1FE0FC00
1FC0FC00
1FC0FC00
1F80FC00
1F80FC00
FFF3FF80
FFF3FF80
ENDCHAR

STARTCHAR afii10076
ENCODING 218
SWIDTH 677 0
DWIDTH 26 0
BBX 24 21 1 0
BITMAP
FFF03C
FFF07E
1F80FF
1F80DE
1F818E
1F8180
1F8380
1F8300
1F8700
1FFC00
1FFF80
1F8FC0
1F87E0
1F87E0
1F83F0
1F83F0
1F81F8
1F80F8
1F80FC
FFF07F
FFF07F
ENDCHAR

STARTCHAR afii10077
ENCODING 219
SWIDTH 698 0
DWIDTH 27 0
BBX 25 21 1 0
BITMAP
0FFFFF80
0FFFFF80
01E0FC00
01C0FC00
01C0FC00
01C0FC00
01C0FC00
01C0FC00
01C0FC00
01C0FC00
01C0FC00
0180FC00
0180FC00
0180FC00
0180FC00
0180FC00
F180FC00
F380FC00
FF00FC00
FF07FF80
7C07FF80
ENDCHAR

STARTCHAR afii10078
ENCODING 220
SWIDTH 854 0
DWIDTH 32 0
BBX 30 21 1 0
BITMAP
FFC00FFC
FBE01BFC
1BE01BE0
1BE01BE0
1BF037E0
19F037E0
19F027E0
19F867E0
18F867E0
18FCC7E0
18FCC7E0
187C87E0
187F87E0
183F87E0
183F07E0
183F07E0
181F07E0
181E07E0
181E07E0
FF0C3FFC
FF0C3FFC
ENDCHAR

STARTCHAR afii10079
ENCODING 221
SWIDTH 713 0
DWIDTH 27 0
BBX 25 21 1 0
BITMAP
FFF3FF80
FFF3FF80
1F80FC00
1F80FC00
1F80FC00
1F80FC00
1F80FC00
1F80FC00
1F80FC00
1FFFFC00
1FFFFC00
1F80FC00
1F80FC00
1F80FC00
1F80FC00
1F80FC00
1F80FC00
1F80FC00
1F80FC00
FFF3FF80
FFF3FF80
ENDCHAR

STARTCHAR afii10080
ENCODING 222
SWIDTH 614 0
DWIDTH 23 0
BBX 21 21 1 0
BITMAP
01FC00
0FFF80
1F07C0
3F03E0
7E03F0
7E03F0
7C01F0
FC01F8
FC01F8
FC01F8
FC01F8
FC01F8
FC01F8
FC01F8
7C01F0
7E03F0
3E03E0
3F07E0
1F8FC0
07FF00
01FC00
ENDCHAR

STARTCHAR afii10081
ENCODING 223
SWIDTH 708 0
DWIDTH 27 0
BBX 25 21 1 0
BITMAP
FFFFFF80
FFFFFF80
1F80FC00
1F80FC00
1F80FC00
1F80FC00
1F80FC00
1F80FC00
1F80FC00
1F80FC00
1F80FC00
1F80FC00
1F80FC00
1F80FC00
1F80FC00
1F80FC00
1F80FC00
1F80FC00
1F80FC00
FFF3FF80
FFF3FF80
ENDCHAR

STARTCHAR afii10082
ENCODING 224
SWIDTH 656 0
DWIDTH 25 0
BBX 22 28 1 -7
BITMAP
FF0F80
FF3FE0
3F7FF0
1F63F0
1FC1F8
1F81F8
1F80FC
1F80FC
1F80FC
1F80FC
1F80FC
1F80FC
1F80FC
1F80FC
1F80F8
1F81F8
1FC1F8
1FE3F0
1FBFE0
1FBFC0
1F8F80
1F8000
1F8000
1F8000
1F8000
1F8000
FFF800
FFF800
ENDCHAR

STARTCHAR afii10083
ENCODING 225
SWIDTH 542 0
DWIDTH 21 0
BBX 19 21 1 0
BITMAP
01FC00
0FFF00
1F8780
3E07C0
7E07C0
7E07C0
7C07C0
FC0380
FC0000
FC0000
FC0000
FC0000
FC0000
FC0000
7E0000
7E00E0
7F01C0
3F8380
1FFF00
0FFE00
01F000
ENDCHAR

STARTCHAR afii10084
ENCODING 226
SWIDTH 598 0
DWIDTH 23 0
BBX 22 21 0 0
BITMAP
7FFFF8
7FFFF8
78FC78
F0FC3C
E0FC1C
E0FC1C
C0FC0C
00FC00
00FC00
00FC00
00FC00
00FC00
00FC00
00FC00
00FC00
00FC00
00FC00
00FC00
00FC00
07FF80
07FF80
ENDCHAR

STARTCHAR afii10085
ENCODING 227
SWIDTH 594 0
DWIDTH 23 0
BBX 23 28 0 -7
BITMAP
FFE1FE
FFE1FE
3F8078
1F8070
1F8060
0FC060
0FC0E0
07E0C0
07E0C0
07E180
03F180
03F300
01FB00
01FB00
00FE00
00FE00
007C00
007C00
003800
003800
001800
003000
383000
7C6000
7C6000
7CC000
3F8000
1F0000
ENDCHAR

STARTCHAR afii10086
ENCODING 228
SWIDTH 823 0
DWIDTH 31 0
BBX 29 36 1 -7
BITMAP
007F8000
007F8000
001F8000
000F8000
000F8000
000F8000
000F8000
000F8000
078F8F80
1FEFBFC0
3FF7BFE0
3E3FE3F0
7E1FC1F0
7C0F81F8
7C0F81F8
7C0F80F8
FC0F80F8
FC0F80F8
FC0F80F8
FC0F80F8
FC0F80F8
7C0F81F8
7C0F81F8
7C0F81F8
7E1FC1F0
3E3FE3F0
3FF7BFE0
1FEFBFC0
07CF8F80
000F8000
000F8000
000F8000
000F8000
001FC000
007FF000
007FF000
ENDCHAR

STARTCHAR afii10087
ENCODING 229
SWIDTH 646 0
DWIDTH 25 0
BBX 23 21 1 0
BITMAP
FFE3FC
FFE3FC
3F8070
1F80E0
0FC0C0
0FE180
07F300
03F600
01FC00
01FC00
00FE00
007F00
00FF00
01BF80
031FC0
060FE0
0E07E0
1C07F0
3C03F8
FF1FFE
FF1FFE
ENDCHAR

STARTCHAR afii10088
ENCODING 230
SWIDTH 711 0
DWIDTH 27 0
BBX 25 26 1 -5
BITMAP
FFF7FF80
FFF7FF80
1F80FC00
1F80FC00
1F80FC00
1F80FC00
1F80FC00
1F80FC00
1F80FC00
1F80FC00
1F80FC00
1F80FC00
1F80FC00
1F80FC00
1F80FC00
1F80FC00
1F80FC00
1F80FC00
1F80FE00
FFFFFF80
FFFFFF80
00000780
00000380
00000180
00000180
00000180
ENDCHAR

STARTCHAR afii10089
ENCODING 231
SWIDTH 698 0
DWIDTH 27 0
BBX 25 21 1 0
BITMAP
FFF7FF80
FFF7FF80
1F80FC00
1F80FC00
1F80FC00
1F80FC00
1F80FC00
1F80FC00
1F80FC00
0FC3FC00
0FFF7C00
07FCFC00
03F8FC00
0000FC00
0000FC00
0000FC00
0000FC00
0000FC00
0000FC00
0007FF80
0007FF80
ENDCHAR

STARTCHAR afii10090
ENCODING 232
SWIDTH 1047 0
DWIDTH 40 0
BBX 38 21 1 0
BITMAP
FFF7FFBFFC
FFF7FFBFFC
1F80FC07E0
1F80FC07E0
1F80FC07E0
1F80FC07E0
1F80FC07E0
1F80FC07E0
1F80FC07E0
1F80FC07E0
1F80FC07E0
1F80FC07E0
1F80FC07E0
1F80FC07E0
1F80FC07E0
1F80FC07E0
1F80FC07E0
1F80FC07E0
1F80FC07E0
FFFFFFFFFC
FFFFFFFFFC
ENDCHAR

STARTCHAR afii10091
ENCODING 233
SWIDTH 1055 0
DWIDTH 40 0
BBX 39 26 1 -5
BITMAP
FFF7FFBFFC
FFF7FFBFFC
1F80FC07E0
1F80FC07E0
1F80FC07E0
1F80FC07E0
1F80FC07E0
1F80FC07E0
1F80FC07E0
1F80FC07E0
1F80FC07E0
1F80FC07E0
1F80FC07E0
1F80FC07E0
1F80FC07E0
1F80FC07E0
1F80FC07E0
1F80FC07E0
1F80FC07E0
FFFFFFFFFE
FFFFFFFFFE
000000003E
000000000E
000000000E
0000000006
0000000006
ENDCHAR

STARTCHAR afii10092
ENCODING 234
SWIDTH 740 0
DWIDTH 28 0
BBX 26 21 1 0
BITMAP
FFFF0000
FFFF0000
F1F80000
E1F80000
C1F80000
C1F80000
C1F80000
01F80000
01F80000
01FFF800
01FFFF00
01F83F80
01F81FC0
01F80FC0
01F80FC0
01F80FC0
01F80FC0
01F81F80
01F83F80
0FFFFF00
0FFFF800
ENDCHAR

STARTCHAR afii10093
ENCODING 235
SWIDTH 948 0
DWIDTH 36 0
BBX 34 21 1 0
BITMAP
FFF003FFC0
FFF003FFC0
1F80007E00
1F80007E00
1F80007E00
1F80007E00
1F80007E00
1F80007E00
1F80007E00
1FFFC07E00
1FFFF07E00
1F83F87E00
1F81FC7E00
1F80FC7E00
1F80FC7E00
1F80FC7E00
1F80FC7E00
1F81F87E00
1F83F87E00
FFFFF3FFC0
FFFF83FFC0
ENDCHAR

STARTCHAR afii10094
ENCODING 236
SWIDTH 635 0
DWIDTH 24 0
BBX 22 21 1 0
BITMAP
FFF000
FFF000
1F8000
1F8000
1F8000
1F8000
1F8000
1F8000
1F8000
1FFFC0
1FFFF0
1F83F8
1F81FC
1F80FC
1F80FC
1F80FC
1F80FC
1F81F8
1F83F8
FFFFF0
FFFF80
ENDCHAR

STARTCHAR afii10095
ENCODING 237
SWIDTH 567 0
DWIDTH 22 0
BBX 19 21 1 0
BITMAP
07F000
3FFE00
7C1F00
780F80
700FC0
7007C0
7007E0
0007E0
0007E0
03FFE0
03FFE0
0007E0
0007E0
7807E0
F807E0
F80FC0
F80FC0
F81F80
7C3F00
3FFE00
0FF800
ENDCHAR

STARTCHAR afii10096
ENCODING 238
SWIDTH 935 0
DWIDTH 36 0
BBX 33 21 1 0
BITMAP
FFF01FC000
FFF07FF800
1F81F87C00
1F83F03E00
1F83E03F00
1F87E01F00
1F87E01F80
1F87E01F80
1F87E01F80
1FFFC01F80
1FFFC01F80
1F87E01F80
1F87E01F80
1F87E01F80
1F87E01F00
1F83E03F00
1F83E03E00
1F81F07E00
1F80F8FC00
FFF07FF000
FFF00FC000
ENDCHAR

STARTCHAR afii10097
ENCODING 239
SWIDTH 669 0
DWIDTH 25 0
BBX 23 21 1 0
BITMAP
03FFFE
0FFFFE
1FC3F0
3F83F0
3F03F0
3F03F0
3F03F0
3F03F0
1F83F0
1FC3F0
0FFFF0
01FFF0
07E3F0
07C3F0
0FC3F0
0F83F0
1F83F0
1F83F0
3F03F0
FF1FFE
FE1FFE
ENDCHAR

STARTCHAR afii61352
ENCODING 240
SWIDTH 1115 0
DWIDTH 42 0
BBX 41 30 0 0
BITMAP
0000003C0000
1FF0007E0000
1FF800FF0000
03FC01FF0000
01FC01FF0000
01FE018E0000
01FF01800000
01FF01800000
01FF81800000
01BF8183F800
01BFC1879E00
019FE18F0F00
019FE18F0F00
018FF19F0F80
0187F99F0F80
0187F99F0F80
0183FD9F0F80
0183FD9F0F80
0181FF8F0F80
0180FF8F0F00
0180FF870F00
01807F879E00
01807F81F800
01803F800000
31801F800000
7B801F800000
FF800F800000
FF000F87FE00
7F000787FE00
3E000387FE00
ENDCHAR

STARTCHAR afii10071
ENCODING 241
SWIDTH 562 0
DWIDTH 21 0
BBX 19 29 1 0
BITMAP
0E0700
1F0F80
1F0F80
1F0F80
0E0700
000000
000000
000000
03F800
0FFE00
1F1F00
3E0F80
3E07C0
7C07C0
7C07C0
FC07E0
FC07E0
FFFFE0
FFFFE0
FC0000
FC0000
FC0000
7C0000
7E00C0
7E01C0
3F0380
1F8F00
0FFE00
03F800
ENDCHAR

STARTCHAR afii10099
ENCODING 242
SWIDTH 646 0
DWIDTH 25 0
BBX 22 36 1 -6
BITMAP
008000
FF8000
FF8000
1F8000
1F8000
FFFFC0
FFFFC0
1F8000
1F8000
1F8FC0
1F9FE0
1FBFF0
1FB3F8
1FC1F8
1FC1F8
1F80FC
1F80FC
1F80FC
1F80FC
1F80FC
1F80FC
1F80FC
1F80FC
1F80FC
1F80FC
1F80FC
1F80F8
1F80F8
FFE0F8
FFE1F0
0001F0
0001E0
0003E0
0007C0
001F80
003E00
ENDCHAR

STARTCHAR afii10100
ENCODING 243
SWIDTH 581 0
DWIDTH 22 0
BBX 20 30 1 0
BITMAP
000400
001F00
003F00
003F00
007C00
00E000
008000
000000
000000
FFFFE0
FFFFF0
1F81F0
1F80F0
1F8070
1F8070
1F8030
1F8030
1F8000
1F8000
1F8000
1F8000
1F8000
1F8000
1F8000
1F8000
1F8000
1F8000
1F8000
FFF000
FFF000
ENDCHAR

STARTCHAR afii10101
ENCODING 244
SWIDTH 552 0
DWIDTH 21 0
BBX 19 21 1 0
BITMAP
03FC00
0FFF00
1F0780
3E07C0
7E07C0
7E07C0
7C07C0
FC0380
FC0000
FFF800
FFF800
FC0000
FC0000
FE0000
7E0060
7E00C0
3F01C0
3F8380
1FFF00
07FE00
01F800
ENDCHAR

STARTCHAR afii10102
ENCODING 245
SWIDTH 500 0
DWIDTH 19 0
BBX 16 21 2 0
BITMAP
0FE0
3FFC
7C3E
700E
F00E
F006
F806
FF00
FFE0
7FF8
3FFE
1FFE
07FF
00FF
C01F
C00F
E00F
E01E
F83E
7FFC
0FE0
ENDCHAR

STARTCHAR afii10103
ENCODING 246
SWIDTH 396 0
DWIDTH 15 0
BBX 13 29 1 0
BITMAP
0F00
1F80
1F80
1F80
0F00
0000
0000
0000
FFC0
FFC0
1FC0
0FC0
0FC0
0FC0
0FC0
0FC0
0FC0
0FC0
0FC0
0FC0
0FC0
0FC0
0FC0
0FC0
0FC0
0FC0
0FC0
FFF8
FFF8
ENDCHAR

STARTCHAR afii10104
ENCODING 247
SWIDTH 396 0
DWIDTH 15 0
BBX 13 29 1 0
BITMAP
7070
F8F8
F8F8
F8F8
7070
0000
0000
0000
FFC0
FFC0
1FC0
0FC0
0FC0
0FC0
0FC0
0FC0
0FC0
0FC0
0FC0
0FC0
0FC0
0FC0
0FC0
0FC0
0FC0
0FC0
0FC0
FFF8
FFF8
ENDCHAR

STARTCHAR afii10105
ENCODING 248
SWIDTH 375 0
DWIDTH 14 0
BBX 13 35 -2 -7
BITMAP
01E0
03F0
03F0
03F0
01E0
0000
0000
0000
1FF8
1FF8
03F8
01F8
01F8
01F8
01F8
01F8
01F8
01F8
01F8
01F8
01F8
01F8
01F8
01F8
01F8
01F8
01F8
01F8
01F0
01F0
71F0
F9E0
F9C0
FF80
7F00
ENDCHAR

STARTCHAR afii10106
ENCODING 249
SWIDTH 967 0
DWIDTH 37 0
BBX 36 21 0 0
BITMAP
07FFFFC000
07FFFFC000
01E07E0000
00E07E0000
00E07E0000
00E07E0000
00E07E0000
00E07E0000
00E07E0000
00C07FFF00
00C07FFFC0
00C07E0FE0
00C07E07F0
00C07E03F0
00C07E03F0
00C07E03F0
79C07E03F0
F9807E07E0
FF807E0FE0
7F03FFFFC0
3E03FFFF00
ENDCHAR

STARTCHAR afii10107
ENCODING 250
SWIDTH 969 0
DWIDTH 37 0
BBX 34 21 2 0
BITMAP
FFE7FF0000
FFE7FF0000
3F01F80000
1F01F80000
1F01F80000
1F01F80000
1F01F80000
1F01F80000
1F01F80000
1FFFFFFC00
1FFFFFFF00
1F01F83F80
1F01F81F80
1F01F80FC0
1F01F80FC0
1F01F80FC0
1F01F80FC0
1F01F81F80
3F01F83F80
FFE7FFFF00
FFE7FFFC00
ENDCHAR

STARTCHAR afii10108
ENCODING 251
SWIDTH 708 0
DWIDTH 27 0
BBX 25 30 1 0
BITMAP
00800000
FF800000
FF800000
1F800000
1F800000
FFFFC000
FFFFC000
1F800000
1F800000
1F87E000
1F9FF000
1FBFF800
1FB1F800
1FE0FC00
1FC0FC00
1F80FC00
1F80FC00
1F80FC00
1F80FC00
1F80FC00
1F80FC00
1F80FC00
1F80FC00
1F80FC00
1F80FC00
1F80FC00
1F80FC00
1F80FC00
FFF3FF80
FFF3FF80
ENDCHAR

STARTCHAR afii10109
ENCODING 252
SWIDTH 677 0
DWIDTH 26 0
BBX 24 29 1 0
BITMAP
000380
0007C0
000F80
001F80
003C00
007000
000000
000000
FFF03C
FFF07E
1F80FF
1F80DE
1F818E
1F8180
1F8380
1F8300
1F8700
1FFC00
1FFF80
1F8FC0
1F87E0
1F87E0
1F83F0
1F83F0
1F81F8
1F80F8
1F80FC
FFF07F
FFF07F
ENDCHAR

STARTCHAR section
ENCODING 253
SWIDTH 531 0
DWIDTH 20 0
BBX 17 36 2 -7
BITMAP
03F800
0FFE00
1E1E00
381F00
781F00
781F00
7C1E00
7E0400
3F8000
3FC000
1FE000
0FF800
1FFC00
3BFE00
71FF00
F07F00
F03F80
F81F80
FC0F80
FE0780
7F0780
7FC700
3FE600
1FFE00
0FF800
03FC00
01FE00
007F00
103F00
3C1F00
7C0F00
7C0F00
7C0E00
3C3C00
1FF800
07E000
ENDCHAR

STARTCHAR afii10110
ENCODING 254
SWIDTH 594 0
DWIDTH 23 0
BBX 23 36 0 -7
BITMAP
01C0C0
01E1E0
01C0E0
01C1E0
00FFC0
001E00
000000
000000
FFF1FE
FFF1FE
3F8078
1F8030
1FC070
0FC060
0FE060
07E0C0
07E0C0
03F1C0
03F180
01F980
01FB00
01FF00
00FE00
00FE00
007E00
007C00
003C00
003800
001800
001800
383000
7C3000
7C6000
7CC000
3FC000
1F0000
ENDCHAR

STARTCHAR afii10193
ENCODING 255
SWIDTH 708 0
DWIDTH 27 0
BBX 25 26 1 -5
BITMAP
FFF7FF80
FFF7FF80
1F80FC00
1F80FC00
1F80FC00
1F80FC00
1F80FC00
1F80FC00
1F80FC00
1F80FC00
1F80FC00
1F80FC00
1F80FC00
1F80FC00
1F80FC00
1F80FC00
1F80FC00
1F80FC00
1F80FC00
FFFFFF80
FFFFFF80
007E0000
003C0000
001C0000
001C0000
00180000
ENDCHAR
ENDFONT
